<svg xmlns="http://www.w3.org/2000/svg" width="28" height="28" viewBox="0 0 28 28"><style type="text/css">.st0{fill:#29CCE2;} .st1{fill:#4D4D4D;} .st2{fill:none;stroke:#4D4D4D;stroke-miterlimit:10;} .st3{fill:none;stroke:#29CCE2;stroke-miterlimit:10;} .st4{fill:#00CDE4;}</style><path class="st0" d="M127.9-31.9h-6.5c-.2 0-.3-.1-.3-.3v-.2c0-.2.1-.3.3-.3h6.5c.2 0 .3.1.3.3v.2c.1.1-.1.3-.3.3z"/><path class="st1" d="M139.3-35.2h-19c-1.1 0-2-.8-2-1.8v-5.4c0-1 .9-1.8 2-1.8h19c1.1 0 2 .8 2 1.8v5.4c0 1-.9 1.8-2 1.8zm-19-8.1c-.6 0-1 .4-1 .9v5.4c0 .5.4.9 1 .9h19c.6 0 1-.4 1-.9v-5.4c0-.5-.4-.9-1-.9h-19z"/><path class="st0" d="M139.3-16.2h-19c-.8 0-1.5-.6-1.5-1.4v-6.4c0-.8.7-1.4 1.5-1.4h19c.8 0 1.5.6 1.5 1.4v6.3c0 .9-.7 1.5-1.5 1.5zm-19-8.2c-.3 0-.5.2-.5.5v6.3c0 .3.2.5.5.5h19c.3 0 .5-.2.5-.5v-6.4c0-.3-.2-.5-.5-.5h-19zM139.3-26h-19c-.8 0-1.5-.6-1.5-1.4v-5.9c0-.8.7-1.4 1.5-1.4h19c.8 0 1.5.6 1.5 1.4v5.9c0 .8-.7 1.4-1.5 1.4zm-19-7.8c-.3 0-.5.2-.5.5v5.9c0 .3.2.5.5.5h19c.3 0 .5-.2.5-.5v-5.9c0-.3-.2-.5-.5-.5h-19z"/><path class="st1" d="M136.2-36.1v2.5c0 .2-.2.4-.4.4s-.4-.2-.4-.4v-2.5c0-.2.2-.4.4-.4s.4.2.4.4zM132.2-36.1v2.5c0 .2-.2.4-.4.4s-.4-.2-.4-.4v-2.5c0-.2.2-.4.4-.4s.4.2.4.4zM128.3-36.1v2.5c0 .2-.2.4-.4.4s-.4-.2-.4-.4v-2.5c0-.2.2-.4.4-.4s.4.2.4.4zM124.3-36.1v2.5c0 .2-.2.4-.4.4s-.4-.2-.4-.4v-2.5c0-.2.2-.4.4-.4s.4.2.4.4zM136.2-26.9v2.5c0 .2-.2.4-.4.4s-.4-.2-.4-.4v-2.5c0-.2.2-.4.4-.4s.4.1.4.4zM132.2-26.9v2.5c0 .2-.2.4-.4.4s-.4-.2-.4-.4v-2.5c0-.2.2-.4.4-.4s.4.1.4.4zM128.3-26.9v2.5c0 .2-.2.4-.4.4s-.4-.2-.4-.4v-2.5c0-.2.2-.4.4-.4s.4.1.4.4zM124.3-26.9v2.5c0 .2-.2.4-.4.4s-.4-.2-.4-.4v-2.5c0-.2.2-.4.4-.4s.4.1.4.4z"/><path class="st0" d="M123-30.4h-1.5c-.2 0-.3-.1-.3-.3v-.2c0-.2.1-.3.3-.3h1.5c.2 0 .3.1.3.3v.2c0 .1-.1.3-.3.3zM126.9-30.4h-1.5c-.2 0-.3-.1-.3-.3v-.2c0-.2.1-.3.3-.3h1.5c.2 0 .3.1.3.3v.2c.1.1-.1.3-.3.3zM130.8-30.4h-1.5c-.2 0-.3-.1-.3-.3v-.2c0-.2.1-.3.3-.3h1.5c.2 0 .3.1.3.3v.2c.1.1-.1.3-.3.3zM134.8-30.4h-1.5c-.2 0-.3-.1-.3-.3v-.2c0-.2.1-.3.3-.3h1.5c.2 0 .3.1.3.3v.2c0 .1-.1.3-.3.3zM123-30.4h-1.5c-.2 0-.3-.1-.3-.3v-.2c0-.2.1-.3.3-.3h1.5c.2 0 .3.1.3.3v.2c0 .1-.1.3-.3.3z"/><path class="st1" d="M138.7-30.4h-1.5c-.2 0-.3-.1-.3-.3v-.2c0-.2.1-.3.3-.3h1.5c.2 0 .3.1.3.3v.2c0 .1-.1.3-.3.3z"/><path class="st0" d="M126.9-29.1h-1.5c-.2 0-.3-.1-.3-.3v-.2c0-.2.1-.3.3-.3h1.5c.2 0 .3.1.3.3v.2c.1.1-.1.3-.3.3zM130.8-29.1h-1.5c-.2 0-.3-.1-.3-.3v-.2c0-.2.1-.3.3-.3h1.5c.2 0 .3.1.3.3v.2c.1.1-.1.3-.3.3zM134.8-29.1h-1.5c-.2 0-.3-.1-.3-.3v-.2c0-.2.1-.3.3-.3h1.5c.2 0 .3.1.3.3v.2c0 .1-.1.3-.3.3zM123-29.1h-1.5c-.2 0-.3-.1-.3-.3v-.2c0-.2.1-.3.3-.3h1.5c.2 0 .3.1.3.3v.2c0 .1-.1.3-.3.3z"/><path class="st1" d="M138.7-29.1h-1.5c-.2 0-.3-.1-.3-.3v-.2c0-.2.1-.3.3-.3h1.5c.2 0 .3.1.3.3v.2c0 .1-.1.3-.3.3z"/><path class="st0" d="M126.9-27.9h-1.5c-.2 0-.3-.1-.3-.3v-.2c0-.2.1-.3.3-.3h1.5c.2 0 .3.1.3.3v.2c.1.2-.1.3-.3.3zM130.8-27.9h-1.5c-.2 0-.3-.1-.3-.3v-.2c0-.2.1-.3.3-.3h1.5c.2 0 .3.1.3.3v.2c.1.2-.1.3-.3.3zM134.8-27.9h-1.5c-.2 0-.3-.1-.3-.3v-.2c0-.2.1-.3.3-.3h1.5c.2 0 .3.1.3.3v.2c0 .2-.1.3-.3.3zM123-27.9h-1.5c-.2 0-.3-.1-.3-.3v-.2c0-.2.1-.3.3-.3h1.5c.2 0 .3.1.3.3v.2c0 .2-.1.3-.3.3z"/><path class="st1" d="M138.7-27.9h-1.5c-.2 0-.3-.1-.3-.3v-.2c0-.2.1-.3.3-.3h1.5c.2 0 .3.1.3.3v.2c0 .2-.1.3-.3.3z"/><path class="st0" d="M127.9-22.3h-6.5c-.2 0-.3-.1-.3-.3v-.2c0-.2.1-.3.3-.3h6.5c.2 0 .3.1.3.3v.2c.1.2-.1.3-.3.3zM123-20.8h-1.5c-.2 0-.3-.1-.3-.3v-.2c0-.2.1-.3.3-.3h1.5c.2 0 .3.1.3.3v.2c0 .2-.1.3-.3.3zM126.9-20.8h-1.5c-.2 0-.3-.1-.3-.3v-.2c0-.2.1-.3.3-.3h1.5c.2 0 .3.1.3.3v.2c.1.2-.1.3-.3.3zM130.8-20.8h-1.5c-.2 0-.3-.1-.3-.3v-.2c0-.2.1-.3.3-.3h1.5c.2 0 .3.1.3.3v.2c.1.2-.1.3-.3.3zM134.8-20.8h-1.5c-.2 0-.3-.1-.3-.3v-.2c0-.2.1-.3.3-.3h1.5c.2 0 .3.1.3.3v.2c0 .2-.1.3-.3.3zM123-20.8h-1.5c-.2 0-.3-.1-.3-.3v-.2c0-.2.1-.3.3-.3h1.5c.2 0 .3.1.3.3v.2c0 .2-.1.3-.3.3z"/><path class="st1" d="M138.7-20.8h-1.5c-.2 0-.3-.1-.3-.3v-.2c0-.2.1-.3.3-.3h1.5c.2 0 .3.1.3.3v.2c0 .2-.1.3-.3.3z"/><path class="st0" d="M126.9-19.5h-1.5c-.2 0-.3-.1-.3-.3v-.2c0-.2.1-.3.3-.3h1.5c.2 0 .3.1.3.3v.2c.1.2-.1.3-.3.3zM130.8-19.5h-1.5c-.2 0-.3-.1-.3-.3v-.2c0-.2.1-.3.3-.3h1.5c.2 0 .3.1.3.3v.2c.1.2-.1.3-.3.3zM134.8-19.5h-1.5c-.2 0-.3-.1-.3-.3v-.2c0-.2.1-.3.3-.3h1.5c.2 0 .3.1.3.3v.2c0 .2-.1.3-.3.3zM123-19.5h-1.5c-.2 0-.3-.1-.3-.3v-.2c0-.2.1-.3.3-.3h1.5c.2 0 .3.1.3.3v.2c0 .2-.1.3-.3.3z"/><path class="st1" d="M138.7-19.5h-1.5c-.2 0-.3-.1-.3-.3v-.2c0-.2.1-.3.3-.3h1.5c.2 0 .3.1.3.3v.2c0 .2-.1.3-.3.3z"/><path class="st0" d="M126.9-18.2h-1.5c-.2 0-.3-.1-.3-.3v-.2c0-.2.1-.3.3-.3h1.5c.2 0 .3.1.3.3v.2c.1.1-.1.3-.3.3zM130.8-18.2h-1.5c-.2 0-.3-.1-.3-.3v-.2c0-.2.1-.3.3-.3h1.5c.2 0 .3.1.3.3v.2c.1.1-.1.3-.3.3zM134.8-18.2h-1.5c-.2 0-.3-.1-.3-.3v-.2c0-.2.1-.3.3-.3h1.5c.2 0 .3.1.3.3v.2c0 .1-.1.3-.3.3zM123-18.2h-1.5c-.2 0-.3-.1-.3-.3v-.2c0-.2.1-.3.3-.3h1.5c.2 0 .3.1.3.3v.2c0 .1-.1.3-.3.3z"/><path class="st1" d="M138.7-18.2h-1.5c-.2 0-.3-.1-.3-.3v-.2c0-.2.1-.3.3-.3h1.5c.2 0 .3.1.3.3v.2c0 .1-.1.3-.3.3zM67.6-30.2h-4.6c-.3 0-.5-.1-.6-.3-.1-.2-.2-.4-.1-.7l1.9-8.3-.5-1.8c0 .1-2.3 9.8-2.3 9.8-.2.6-.1 1.2.3 1.6.3.4.8.7 1.4.7h5.6l-1.1-1z"/><path class="st0" d="M88-29.2h-19.9c-.8 0-1.5-.6-1.8-1.4l-2.7-9.8c-.1-.4-.1-.8.2-1.2.2-.3.6-.5 1-.5h19.9c.8 0 1.5.6 1.8 1.4l2.7 9.8c.1.4.1.8-.2 1.2-.2.3-.6.5-1 .5zm-23.2-11.8c-.1 0-.2 0-.2.1s-.1.2 0 .3l2.7 9.8c.1.3.5.6.8.6h19.9c.1 0 .2 0 .2-.1s.1-.2 0-.3l-2.7-9.8c-.1-.3-.5-.6-.8-.6h-19.9zM73.1-39.3h-6.2c-.2 0-.5-.2-.6-.4-.1-.2 0-.4.3-.4h6.2c.2 0 .5.2.6.4.1.2 0 .4-.3.4zM68.8-37.3h-1.3c-.2 0-.5-.2-.6-.4-.1-.2 0-.4.3-.4h1.3c.2 0 .5.2.6.4.1.2 0 .4-.3.4zM72.8-37.3h-1.3c-.2 0-.5-.2-.6-.4-.1-.2 0-.4.3-.4h1.3c.2 0 .5.2.6.4 0 .2-.1.4-.3.4zM76.7-37.3h-1.3c-.2 0-.5-.2-.6-.4-.1-.2 0-.4.3-.4h1.3c.2 0 .5.2.6.4.1.2-.1.4-.3.4zM80.6-37.3h-1.3c-.2 0-.5-.2-.6-.4-.1-.2 0-.4.3-.4h1.3c.2 0 .5.2.6.4.1.2 0 .4-.3.4zM68.8-37.3h-1.3c-.2 0-.5-.2-.6-.4-.1-.2 0-.4.3-.4h1.3c.2 0 .5.2.6.4.1.2 0 .4-.3.4z"/><path class="st1" d="M84.5-37.3h-1.3c-.2 0-.5-.2-.6-.4-.1-.2 0-.4.3-.4h1.3c.2 0 .5.2.6.4.1.2 0 .4-.3.4z"/><path class="st0" d="M73.4-35.4h-1.3c-.2 0-.5-.2-.6-.4-.1-.2 0-.4.3-.4h1.3c.2 0 .5.2.6.4.1.2 0 .4-.3.4zM77.4-35.4h-1.3c-.2 0-.5-.2-.6-.4-.1-.2 0-.4.3-.4h1.3c.2 0 .5.2.6.4 0 .2-.1.4-.3.4zM81.3-35.4h-1.3c-.2 0-.5-.2-.6-.4-.1-.2 0-.4.3-.4h1.3c.2 0 .5.2.6.4.1.2-.1.4-.3.4zM69.5-35.4h-1.3c-.2 0-.5-.2-.6-.4-.1-.2 0-.4.3-.4h1.3c.2 0 .5.2.6.4.1.2 0 .4-.3.4z"/><path class="st1" d="M85.2-35.4h-1.3c-.2 0-.5-.2-.6-.4-.1-.2 0-.4.3-.4h1.3c.2 0 .5.2.6.4.1.2-.1.4-.3.4z"/><path class="st0" d="M74.1-33.4h-1.3c-.2 0-.5-.2-.6-.4-.1-.2 0-.4.3-.4h1.3c.2 0 .5.2.6.4.1.2 0 .4-.3.4zM78-33.4h-1.3c-.2 0-.5-.2-.6-.4-.1-.2 0-.4.3-.4h1.3c.2 0 .5.2.6.4.1.2 0 .4-.3.4zM82-33.4h-1.3c-.2 0-.5-.2-.6-.4-.1-.2 0-.4.3-.4h1.3c.2 0 .5.2.6.4 0 .2-.1.4-.3.4zM70.2-33.4h-1.3c-.2 0-.5-.2-.6-.4-.1-.2 0-.4.3-.4h1.3c.2 0 .5.2.6.4.1.2-.1.4-.3.4z"/><path class="st1" d="M85.9-33.4h-1.3c-.2 0-.5-.2-.6-.4-.1-.2 0-.4.3-.4h1.3c.2 0 .5.2.6.4 0 .2-.1.4-.3.4z"/><path class="st0" d="M74.8-31.4h-1.3c-.2 0-.5-.2-.6-.4-.1-.2 0-.4.3-.4h1.3c.2 0 .5.2.6.4.1.2-.1.4-.3.4zM78.7-31.4h-1.3c-.2 0-.5-.2-.6-.4-.1-.2 0-.4.3-.4h1.3c.2 0 .5.2.6.4.1.2-.1.4-.3.4zM82.6-31.4h-1.3c-.2 0-.5-.2-.6-.4-.1-.2 0-.4.3-.4h1.3c.2 0 .5.2.6.4.1.2 0 .4-.3.4zM70.9-31.4h-1.3c-.2 0-.5-.2-.6-.4-.1-.2 0-.4.3-.4h1.3c.2 0 .5.2.6.4 0 .2-.1.4-.3.4z"/><path class="st1" d="M86.6-31.4h-1.3c-.2 0-.5-.2-.6-.4-.1-.2 0-.4.3-.4h1.3c.2 0 .5.2.6.4 0 .2-.1.4-.3.4zM78.7-43.3l.3 1.2c.1.2-.1.5-.3.5h-.1c-.2.1-.5-.1-.5-.3l-.4-1.1c-.1-.2.1-.5.3-.5h.1c.3-.1.5 0 .6.2zM74.9-43.3l.3 1.2c.1.2-.1.5-.3.5h-.1c-.2.1-.5-.1-.5-.3l-.3-1.1c-.1-.2.1-.5.3-.5h.1c.2-.1.5 0 .5.2zM71.2-43.3l.3 1.2c.1.2-.1.5-.3.5h-.1c-.2.1-.5-.1-.5-.3l-.3-1.1c-.1-.2.1-.5.3-.5h.1c.2-.1.5 0 .5.2zM67.5-43.3l.3 1.2c.1.2-.1.5-.3.5h-.1c-.2.1-.5-.1-.5-.3l-.3-1.1c-.1-.2.1-.5.3-.5h.1c.2-.1.4 0 .5.2zM82.4-43.3l.3 1.2c.1.2-.1.5-.3.5h-.1c-.2.1-.5-.1-.5-.3l-.3-1.1c-.1-.2.1-.5.3-.5h.1c.2-.1.4 0 .5.2z"/><path class="st0" d="M65.2 29.7h-7.4c-.2 0-.4-.2-.4-.4s.2-.4.4-.4h7.4c.2 0 .4.2.4.4s-.2.4-.4.4zM60.9 33.8h-3.1c-.2 0-.4-.2-.4-.4s.2-.4.4-.4h3.1c.2 0 .4.2.4.4s-.2.4-.4.4zM65.2 33.8h-2.5c-.2 0-.4-.2-.4-.4s.2-.4.4-.4h2.5c.2 0 .4.2.4.4s-.2.4-.4.4z"/><path class="st1" d="M65.1 37.8h-7.4c-.2 0-.4-.2-.4-.4s.2-.4.4-.4h7.4c.2 0 .4.2.4.4s-.2.4-.4.4z"/><path class="st0" d="M59.8 41.6h-2.1c-.2 0-.4-.2-.4-.4s.2-.4.4-.4h2.1c.2 0 .4.2.4.4s-.2.4-.4.4zM70.3 41.6h-2.1c-.2 0-.4-.2-.4-.4s.2-.4.4-.4h2.1c.2 0 .4.2.4.4s-.1.4-.4.4zM63.3 41.6h-2.1c-.2 0-.4-.2-.4-.4s.2-.4.4-.4h2.1c.2 0 .4.2.4.4s-.1.4-.4.4zM66.8 41.6h-2.1c-.2 0-.4-.2-.4-.4s.2-.4.4-.4h2.1c.2 0 .4.2.4.4s-.1.4-.4.4zM73.8 41.6h-2.1c-.2 0-.4-.2-.4-.4s.2-.4.4-.4h2.1c.2 0 .4.2.4.4s-.1.4-.4.4z"/><path class="st1" d="M73.8 44.9h-16.1c-.2 0-.4-.2-.4-.4s.2-.4.4-.4h16.1c.2 0 .4.2.4.4s-.1.4-.4.4z"/><path class="st0" d="M65.2 48.2h-7.5c-.2 0-.4-.2-.4-.4s.2-.4.4-.4h7.5c.2 0 .4.2.4.4.1.2-.1.4-.4.4zM73.8 48.2h-7.5c-.2 0-.4-.2-.4-.4s.2-.4.4-.4h7.5c.2 0 .4.2.4.4.1.2-.1.4-.4.4z"/><path class="st1" d="M70.3 51.4h-2.1c-.2 0-.4-.2-.4-.4s.2-.4.4-.4h2.1c.2 0 .4.2.4.4.1.2-.1.4-.4.4zM73.8 51.4h-2.1c-.2 0-.4-.2-.4-.4s.2-.4.4-.4h2.1c.2 0 .4.2.4.4s-.1.4-.4.4zM63.3 51.4h-2.1c-.2 0-.4-.2-.4-.4s.2-.4.4-.4h2.1c.2 0 .4.2.4.4.1.2-.1.4-.4.4zM66.8 51.4h-2.1c-.2 0-.4-.2-.4-.4s.2-.4.4-.4h2.1c.2 0 .4.2.4.4.1.2-.1.4-.4.4zM59.8 51.4h-2.1c-.2 0-.4-.2-.4-.4s.2-.4.4-.4h2.1c.2 0 .4.2.4.4.1.2-.1.4-.4.4z"/><path class="st2" d="M74 29.4v7.9c0 .6-.4 1-1 1h-4.4c-.6 0-1-.4-1-1v-7.9c0-.6.4-1 1-1h4.4c.6 0 1 .5 1 1z"/><path class="st0" d="M112.3-31.3c-.3-.2-.6-.2-1-.1l-7.4 2.7c-.2.1-.4.2-.6.4-.2-.2-.4-.4-.6-.4l-7.4-2.7c-.3-.1-.7-.1-.9.1-.3-.2-.6-.2-.9-.1l-7.4 2.7c-.6.2-1.1.9-1.1 1.6v22.5c0 .4.2.7.4.9.2.1.4.2.6.2.1 0 .3 0 .4-.1l7.4-2.7c.2-.1.4-.3.6-.5.2.2.4.4.6.5l7.4 2.7.4.1c.2 0 .4-.1.5-.2.2.1.3.2.5.2.1 0 .3 0 .4-.1l7.4-2.7c.6-.2 1.1-.9 1.1-1.6v-22.5c0-.4-.2-.7-.4-.9zm-18.5 23.5c0 .3-.2.6-.4.7l-7.5 2.7v-22.6c0-.3.2-.6.4-.7l7.5-2.7v22.6zm8.9 3.3l-7.4-2.7c-.2-.1-.4-.4-.4-.7v-22.5c0-.1 0-.1.1-.1l7.4 2.7c.2.1.4.4.4.7v22.5c0 .1-.1.1-.1.1zm9-3.3c0 .3-.2.6-.4.7l-7.5 2.7v-22.6c0-.3.2-.6.4-.7l7.5-2.7v22.6z"/><path class="st1" d="M101.2-6.4c-.2 0-.3 0-.5-.1l-4.2-1.5c-.7-.3-1.3-1.1-1.3-1.8v-6.3c0-.4.2-.8.5-1 .3-.2.7-.3 1.1-.1l4.2 1.6c.7.3 1.3 1.1 1.3 1.8v6.3c0 .4-.2.8-.5 1-.1.1-.3.1-.6.1zm-4.9-9.9c-.1 0-.1.1-.1.2v6.3c0 .3.3.7.7.9l4.2 1.6c.1.1.2 0 .3 0 0 0 .1-.1.1-.2v-6.3c0-.3-.3-.7-.7-.9l-4.2-1.6h-.3z"/><path class="st0" d="M101.1-25.6l-4.7-1.8c-.2-.1-.4-.3-.4-.6 0-.2.2-.4.4-.3l4.7 1.8c.2.1.4.3.4.6 0 .2-.2.3-.4.3zM101.1-23.4l-4.7-1.8c-.2-.1-.4-.3-.4-.6 0-.2.2-.4.4-.3l4.7 1.8c.2.1.4.3.4.6 0 .2-.2.4-.4.3zM101.1-21.2l-4.7-1.8c-.2-.1-.4-.3-.4-.6 0-.2.2-.4.4-.3l4.7 1.8c.2.1.4.3.4.6s-.2.4-.4.3zM98.2-20.1l-1.8-.7c-.2-.1-.4-.3-.4-.6 0-.2.2-.4.4-.3l1.8.7c.2.1.4.3.4.6s-.2.4-.4.3zM101.1-16.8l-4.7-1.8c-.2-.1-.4-.3-.4-.6 0-.2.2-.4.4-.3l4.7 1.8c.2.1.4.3.4.6s-.2.4-.4.3z"/><path class="st1" d="M87.2-17.8c-.2 0-.4-.1-.6-.2-.3-.2-.5-.6-.5-1v-6.3c0-.7.6-1.5 1.3-1.8l4.2-1.7c.4-.2.8-.1 1.2.1.3.2.5.6.5 1v6.3c0 .7-.6 1.5-1.3 1.8l-4.2 1.7c-.3 0-.5.1-.6.1zm4.9-10.1h-.2l-4.2 1.7c-.3.1-.7.6-.7.9v6.5h.3l4.2-1.7c.3-.1.7-.6.7-.9v-6.3c0-.1 0-.2-.1-.2z"/><path class="st0" d="M92.2-17.5l-4.7 1.8c-.2.1-.4 0-.4-.3 0-.2.2-.5.4-.6l4.7-1.8c.2-.1.4 0 .4.3s-.2.5-.4.6zM92.2-15.3l-4.7 1.8c-.2.1-.4 0-.4-.3 0-.2.2-.5.4-.6l4.7-1.8c.2-.1.4 0 .4.3s-.2.5-.4.6zM92.2-13.1l-4.7 1.8c-.2.1-.4 0-.4-.3 0-.2.2-.5.4-.6l4.7-1.8c.2-.1.4 0 .4.3s-.2.5-.4.6zM92.2-10.9l-4.7 1.9c-.3.1-.5 0-.5-.3 0-.2.2-.5.4-.6l4.7-1.8c.2-.1.4 0 .4.3.1.2-.1.5-.3.5zM89-7.4l-1.6.6c-.2.1-.4 0-.4-.3 0-.2.2-.5.4-.6l1.6-.6c.2-.1.4 0 .4.3 0 .2-.2.5-.4.6zM92.2-8.6l-1.6.6c-.2.1-.4 0-.4-.3 0-.2.2-.5.4-.6l1.6-.6c.2-.1.4 0 .4.3 0 .2-.2.5-.4.6zM101.1-19l-1.8-.7c-.2-.1-.4-.3-.4-.6 0-.2.2-.4.4-.3l1.8.7c.2.1.4.3.4.6s-.2.4-.4.3z"/><path class="st1" d="M110.2-27.8l-4.7 1.7c-.2.1-.4 0-.4-.3 0-.2.2-.5.4-.6l4.7-1.7c.2-.1.4 0 .4.3s-.1.5-.4.6zM110.2-25.6l-4.7 1.7c-.2.1-.4 0-.4-.3 0-.2.2-.5.4-.6l4.7-1.7c.2-.1.4 0 .4.3s-.1.5-.4.6zM110.2-23.4l-4.7 1.7c-.2.1-.4 0-.4-.3 0-.2.2-.5.4-.6l4.7-1.7c.2-.1.4 0 .4.3s-.1.5-.4.6zM110.2-21.2l-4.7 1.7c-.2.1-.4 0-.4-.3 0-.2.2-.5.4-.6l4.7-1.7c.2-.1.4 0 .4.3s-.1.6-.4.6zM110.2-16.9l-4.7 1.7c-.2.1-.4 0-.4-.3 0-.2.2-.5.4-.6l4.7-1.7c.2-.1.4 0 .4.3s-.1.5-.4.6zM110.2-14.7l-4.7 1.7c-.2.1-.4 0-.4-.3 0-.2.2-.5.4-.6l4.7-1.7c.2-.1.4 0 .4.3s-.2.6-.4.6zM110.2-12.4l-4.7 1.7c-.2.1-.4 0-.4-.3 0-.2.2-.5.4-.6l4.7-1.7c.2-.1.4 0 .4.3 0 .2-.2.5-.4.6zM110.2-10.2l-4.7 1.7c-.2.1-.4 0-.4-.3 0-.2.2-.5.4-.6l4.7-1.7c.2-.1.4 0 .4.3 0 .2-.2.5-.4.6zM110.2-8l-4.7 1.7c-.2.1-.4 0-.4-.3 0-.2.2-.5.4-.6l4.7-1.7c.2-.1.4 0 .4.3 0 .2-.2.5-.4.6zM107.4-18l-1.8.7c-.2.1-.4 0-.4-.3 0-.2.2-.5.4-.6l1.8-.7c.2-.1.4 0 .4.3s-.2.5-.4.6zM110.2-19l-1.8.7c-.2.1-.4 0-.4-.3 0-.2.2-.5.4-.6l1.8-.7c.2-.1.4 0 .4.3 0 .2-.1.5-.4.6z"/><path class="st2" d="M46-39.1v6.5c0 .6-.4.8-1 .6l-4.4-1.9c-.6-.2-1-.9-1-1.4v-6.5c0-.6.4-.8 1-.6l4.4 1.9c.6.2 1 .9 1 1.4z"/><path class="st0" d="M45.2-46.7l-4.9-2.1c-.2-.1-.4-.4-.4-.6 0-.2.2-.4.4-.2l4.9 2.1c.2.1.4.4.4.6.1.2-.1.3-.4.2zM42.3-45.7l-1.9-.8c-.2-.1-.4-.4-.4-.6 0-.2.2-.4.4-.2l1.9.8c.2.1.4.4.4.6 0 .2-.2.3-.4.2zM45.2-42.2l-4.9-2.1c-.2-.1-.4-.4-.4-.6 0-.2.2-.4.4-.2l4.9 2.1c.2.1.4.4.4.6.1.2-.1.3-.4.2zM45.2-44.4l-1.9-.8c-.2-.1-.4-.4-.4-.6 0-.2.2-.4.4-.2l1.9.8c.2.1.4.4.4.6 0 .1-.2.3-.4.2zM50.1-27.1l-13.4-5.5c-.6-.2-1.1-.9-1.1-1.6v-19.5c0-.6.5-.9 1.1-.7l13.4 5.5c.6.2 1.1.9 1.1 1.6v19.5c-.1.6-.6 1-1.1.7zm-13.5-26.5c-.2-.1-.4 0-.4.2v19.5c0 .2.2.4.4.5l13.4 5.5c.2.1.4 0 .4-.2v-19.5c0-.2-.2-.4-.4-.5l-13.4-5.5zM51.2-54.8h-14.5c-.6 0-1.1.5-1.1 1.1v19.5c0 .6.5 1.1 1.1 1.1h.7l-.8-.3c-.2-.1-.4-.3-.4-.5v-19.5c0-.1 0-.1.1-.2v-.1c0-.2.2-.4.4-.4h14.5c.2 0 .4.2.4.4v19.5c0 .2-.2.4-.4.4h-.8v.8h.8c.6 0 1.1-.5 1.1-1.1v-19.5c.1-.7-.4-1.2-1.1-1.2z"/><path class="st2" d="M9.3 13.4v-6.1c0-.5.4-.8 1-.5l4.4 1.8c.6.2 1 .8 1 1.3v6.1c0 .5-.4.8-1 .5l-4.4-1.8c-.6-.2-1-.8-1-1.3z"/><path class="st0" d="M10.1 20.6l4.9 2c.2.1.4.4.4.6 0 .2-.2.3-.4.2l-4.9-2c-.2-.1-.4-.4-.4-.6-.1-.2.1-.3.4-.2zM13 19.7l1.9.8c.2.1.4.4.4.6 0 .2-.2.3-.4.2l-1.9-.8c-.2-.1-.4-.4-.4-.6 0-.2.2-.3.4-.2zM10.1 16.3l4.9 2c.2.1.4.4.4.6 0 .2-.2.3-.4.2l-4.9-2c-.2-.1-.4-.4-.4-.6-.1-.2.1-.3.4-.2zM10.1 18.5l1.9.8c.2.1.4.4.4.6 0 .2-.2.3-.4.2l-1.9-.8c-.2-.1-.4-.4-.4-.6-.1-.2.1-.3.4-.2zM21.9 2l.1-.3v-.6000000000000001c0-.3-.1-.5-.4-.7s-.5-.3-.8-.3h-14.5c-.3 0-.6.1-.8.3s-.3.4-.3.7v20.2c0 .6.5 1.2 1.1 1.5l13.4 5.2c.6.2 1.1-.1 1.1-.6v-4.9h.1c.6 0 1.1-.5 1.1-1.1v-18.4c0-.3-.1-.5-.3-.7l.2-.3zm-16-.8c0-.2.2-.4.4-.4h14.5c.2 0 .4.2.4.4v.4c0 .2-.2.3-.4.4h-14.5c-.2 0-.4-.2-.4-.4v-.4zm14.1 25.8c0 .2-.2.3-.4.2l-13.4-5.1c-.1-.1-.3-.2-.3-.3v-18.5c0-.1 0-.1.1-.2 0-.1.1-.1.2-.1l13.4 5.2c.2.1.4.3.4.5v18.299999999999997zm1.2-5.7c0 .2-.2.4-.4.4h-.1v-12.7c0-.6-.5-1.2-1.1-1.5l-12.6-4.9h13.8c.2 0 .4.2.4.4v18.3zM22 2.9v-.7.7zM-143.5 41.3l-7.9-2.1c-.3-.1-.5-.3-.5-.6 0-.2.2-.4.5-.3l7.9 2.1c.3.1.5.3.5.6 0 .2-.2.3-.5.3zM-148.7 43.5l-2.7-.7c-.3-.1-.5-.3-.5-.6 0-.2.2-.4.5-.3l2.7.7c.3.1.5.3.5.6-.1.2-.3.3-.5.3zM-143.5 44.9l-2.7-.7c-.3-.1-.5-.3-.5-.6 0-.2.2-.4.5-.3l2.7.7c.3.1.5.3.5.6 0 .2-.2.4-.5.3zM-143.5 48.5l-7.9-2.1c-.3-.1-.5-.3-.5-.6 0-.2.2-.4.5-.3l7.9 2.1c.3.1.5.3.5.6 0 .2-.2.4-.5.3zM-143.5 52.1l-7.9-2.1c-.3-.1-.5-.3-.5-.6 0-.2.2-.4.5-.3l7.9 2.1c.3.1.5.3.5.6 0 .2-.2.4-.5.3zM-143.5 55.7l-7.9-2.1c-.3-.1-.5-.3-.5-.6 0-.2.2-.4.5-.3l7.9 2.1c.3.1.5.3.5.6 0 .2-.2.4-.5.3zM-143.5 59.3l-7.9-2.1c-.3-.1-.5-.3-.5-.6 0-.2.2-.4.5-.3l7.9 2.1c.3.1.5.3.5.6s-.2.4-.5.3z"/><path class="st1" d="M-141.2 40.5v2.1c0 .2-.2.4-.4.4s-.4-.2-.4-.4v-2.1c0-.2.2-.4.4-.4.2-.1.4.1.4.4zM-141.2 57.9v2.1c0 .2-.2.4-.4.4s-.4-.2-.4-.4v-2.1c0-.2.2-.4.4-.4.2-.1.4.1.4.4z"/><path class="st0" d="M-127.9 34.3c-.3-.2-.8-.3-1.2-.2l-11.5 3.4c-.4.1-.7.3-.9.6-.2-.3-.6-.5-.9-.6l-11.5-3.4c-.5-.1-.9-.1-1.2.2-.3.2-.5.6-.5 1v22c0 .8.6 1.6 1.4 1.8l11.5 3.4c.4.1.9.1 1.2-.2.2.2.5.2.8.2.1 0 .3 0 .5-.1l11.5-3.4c.8-.2 1.4-1 1.4-1.8v-22c-.1-.3-.3-.6-.6-.9zm-.5 23c0 .3-.3.7-.7.8l-11.5 3.4h-.4s-.1-.1-.1-.2v-.1c0-.2-.2-.4-.4-.4h-.1c-.2 0-.4.2-.4.4v.1c0 .1 0 .2-.1.2-.1.1-.2.1-.4 0l-11.5-3.4c-.4-.1-.7-.5-.7-.8v-22c0-.1 0-.2.1-.2h.4l11.5 3.4c.4.1.7.5.7.8 0 .2.2.4.4.4h.1c.2 0 .4-.2.4-.4 0-.3.3-.7.7-.8l11.5-3.4h.4s.1.1.1.2v22zM-141.6 43.5c-.2 0-.4.2-.4.4v12.5c0 .2.2.4.4.4s.4-.2.4-.4v-12.5c0-.2-.2-.4-.4-.4z"/><path class="st1" d="M-152.6 36.6v20.4c0 .2-.2.4-.4.4s-.4-.2-.4-.4v-20.4c0-.2.2-.4.4-.4s.4.2.4.4z"/><path class="st0" d="M-139.2 41.1l7.9-2.1c.3-.1.5-.3.5-.6 0-.2-.2-.4-.5-.3l-7.9 2.1c-.3.1-.5.3-.5.6 0 .2.2.4.5.3zM-134 43.3l2.7-.7c.3-.1.5-.3.5-.6 0-.2-.2-.4-.5-.3l-2.7.7c-.3.1-.5.3-.5.6 0 .2.2.4.5.3zM-139.2 44.7l2.7-.7c.3-.1.5-.3.5-.6 0-.2-.2-.4-.5-.3l-2.7.7c-.3.1-.5.3-.5.6 0 .2.2.4.5.3zM-139.2 48.3l7.9-2.1c.3-.1.5-.3.5-.6 0-.2-.2-.4-.5-.3l-7.9 2.1c-.3.1-.5.3-.5.6 0 .2.2.4.5.3zM-139.2 51.9l7.9-2.1c.3-.1.5-.3.5-.6 0-.2-.2-.4-.5-.3l-7.9 2.1c-.3.1-.5.3-.5.6s.2.4.5.3zM-139.2 55.5l7.9-2.1c.3-.1.5-.3.5-.6 0-.2-.2-.4-.5-.3l-7.9 2.1c-.3.1-.5.3-.5.6s.2.4.5.3zM-139.2 59.2l7.9-2.1c.3-.1.5-.3.5-.6 0-.2-.2-.4-.5-.3l-7.9 2.1c-.3.1-.5.3-.5.6 0 .2.2.3.5.3z"/><path class="st1" d="M-130.2 36.5v20.4c0 .2.2.4.4.4s.4-.2.4-.4v-20.4c0-.2-.2-.4-.4-.4-.2-.1-.4.1-.4.4zM-138.1 6.5h-3.1c-.2 0-.4-.2-.4-.4s.2-.4.4-.4h3.1c.2 0 .4.2.4.4s-.2.4-.4.4zM-138.1 10.5h-3.1c-.2 0-.4-.2-.4-.4s.2-.4.4-.4h3.1c.2 0 .4.2.4.4s-.2.4-.4.4zM-138.1 14.5h-3.1c-.2 0-.4-.2-.4-.4s.2-.4.4-.4h3.1c.2 0 .4.2.4.4s-.2.4-.4.4zM-138.1 18.5h-3.1c-.2 0-.4-.2-.4-.4s.2-.4.4-.4h3.1c.2 0 .4.2.4.4s-.2.4-.4.4zM-138.1 22.5h-3.1c-.2 0-.4-.2-.4-.4s.2-.4.4-.4h3.1c.2 0 .4.2.4.4s-.2.4-.4.4z"/><path class="st0" d="M-128.4 8.9l-7.5 2.2c-.2.1-.4-.1-.4-.3 0-.2.2-.5.4-.6l7.5-2.2c.2-.1.4.1.4.3 0 .2-.2.5-.4.6z"/><path class="st2" d="M-127.8 11.8v7.9c0 .6-.4 1.1-1 1.3l-6.9 2c-.6.2-1-.1-1-.7v-7.9c0-.6.4-1.1 1-1.3l6.9-2c.6-.2 1 .1 1 .7z"/><path class="st0" d="M-128.4 5.9l-7.5 2.2c-.2.1-.4-.1-.4-.3 0-.2.2-.5.4-.6l7.5-2.2c.2-.1.4.1.4.3 0 .3-.2.6-.4.6zM-128.4 3l-7.5 2.2c-.2.1-.4-.1-.4-.3 0-.2.2-.5.4-.6l7.5-2.2c.2-.1.4.1.4.3 0 .3-.2.5-.4.6zM-143.7 5l-7.5-2.1c-.2-.1-.4-.3-.4-.6 0-.2.2-.4.4-.3l7.5 2.1c.2.1.4.3.4.6.1.2-.1.3-.4.3zM-148.7 7.2l-2.5-.7c-.2-.1-.4-.3-.4-.6 0-.2.2-.4.4-.3l2.5.7c.2.1.4.3.4.6.1.2-.1.3-.4.3zM-143.7 8.6l-2.5-.7c-.2-.1-.4-.3-.4-.6 0-.2.2-.4.4-.3l2.5.7c.2.1.4.3.4.6.1.2-.1.3-.4.3zM-143.7 12.2l-7.5-2.1c-.2-.1-.4-.3-.4-.6 0-.2.2-.4.4-.3l7.5 2.1c.2.1.4.3.4.6.1.2-.1.4-.4.3zM-143.7 15.8l-7.5-2.1c-.2-.1-.4-.3-.4-.6 0-.2.2-.4.4-.3l7.5 2.1c.2.1.4.3.4.6.1.2-.1.4-.4.3zM-143.7 19.4l-7.5-2.1c-.2-.1-.4-.3-.4-.6 0-.2.2-.4.4-.3l7.5 2.1c.2.1.4.3.4.6.1.2-.1.4-.4.3zM-143.7 23l-7.5-2.1c-.2-.1-.4-.3-.4-.6 0-.2.2-.4.4-.3l7.5 2.1c.2.1.4.3.4.6.1.2-.1.4-.4.3zM-125.7-1.5c-.3-.2-.8-.3-1.2-.2l-11 3.4c-.8.2-1.4 1-1.4 1.8v1.2c0 .2.2.4.4.4h.1c.2 0 .4-.2.4-.4v-1.3c0-.3.3-.7.7-.8l11-3.4h.30000000000000004c.1 0 .1.1.1.2v22c0 .3-.3.7-.7.8l-11 3.4h-.3c-.1 0-.1-.1-.1-.2v-1.7000000000000002c0-.2-.2-.4-.4-.4h-.1c-.2 0-.4.2-.4.4v1.7000000000000002c0 .4.2.8.5 1 .2.2.5.2.7.2.1 0 .3 0 .5-.1l11-3.4c.8-.2 1.4-1 1.4-1.8v-22c0-.3-.2-.6-.5-.8zM-141.5 1.7l-11-3.4c-.4-.1-.9-.1-1.2.2-.3.2-.5.6-.5 1v22c0 .8.6 1.6 1.4 1.8l11 3.4.5.1c.3 0 .5-.1.7-.2.3-.2.5-.6.5-1v-1.7000000000000002c0-.2-.2-.4-.4-.4h-.1c-.2 0-.4.2-.4.4v1.6c0 .1 0 .2-.1.2s-.2.1-.3 0l-11-3.4c-.4-.1-.7-.5-.7-.8v-22c0-.1 0-.2.1-.2h.30000000000000004l11 3.4c.4.1.7.5.7.8v1.2000000000000002c0 .2.2.4.4.4h.1c.2 0 .4-.2.4-.4v-1.3c0-.7-.6-1.5-1.4-1.7zM-140.3 7.3c0-.2-.2-.4-.4-.4s-.4.2-.4.4v1.5c0 .2.2.4.4.4s.4-.2.4-.4v-1.5zM-140.3 11.4c0-.2-.2-.4-.4-.4s-.4.2-.4.4v1.5c0 .2.2.4.4.4s.4-.2.4-.4v-1.5zM-140.3 15.4c0-.2-.2-.4-.4-.4s-.4.2-.4.4v1.5c0 .2.2.4.4.4s.4-.2.4-.4v-1.5zM-140.7 19c-.2 0-.4.2-.4.4v1.5c0 .2.2.4.4.4s.4-.2.4-.4v-1.5c0-.2-.2-.4-.4-.4zM-138.7 9.2c.2 0 .4-.2.4-.4v-1.5c0-.2-.2-.4-.4-.4s-.4.2-.4.4v1.5c0 .2.2.4.4.4zM-139.1 12.8c0 .2.2.4.4.4s.4-.2.4-.4v-1.5c0-.2-.2-.4-.4-.4s-.4.2-.4.4v1.5zM-139.1 16.8c0 .2.2.4.4.4s.4-.2.4-.4v-1.5c0-.2-.2-.4-.4-.4s-.4.2-.4.4v1.5zM-139.1 20.9c0 .2.2.4.4.4s.4-.2.4-.4v-1.5c0-.2-.2-.4-.4-.4s-.4.2-.4.4v1.5z"/><path class="st3" d="M-113.8 71.3v23.4c0 .6-.4 1-1 1h-16.9c-.6 0-1-.4-1-1v-23.4c0-.6.4-1 1-1h16.9c.5 0 1 .4 1 1z"/><path class="st1" d="M-130.1 68.5v2.1c0 .2-.2.4-.4.4s-.4-.2-.4-.4v-2.1c0-.2.2-.4.4-.4.2-.1.4.1.4.4zM-126.4 68.5v2.1c0 .2-.2.4-.4.4s-.4-.2-.4-.4v-2.1c0-.2.2-.4.4-.4.2-.1.4.1.4.4zM-122.7 68.5v2.1c0 .2-.2.4-.4.4s-.4-.2-.4-.4v-2.1c0-.2.2-.4.4-.4.2-.1.4.1.4.4zM-119.1 68.5v2.1c0 .2-.2.4-.4.4s-.4-.2-.4-.4v-2.1c0-.2.2-.4.4-.4.2-.1.4.1.4.4zM-115.4 68.5v2.1c0 .2-.2.4-.4.4s-.4-.2-.4-.4v-2.1c0-.2.2-.4.4-.4.2-.1.4.1.4.4z"/><path class="st0" d="M-116.1 74.7h-14.3c-.2 0-.4-.2-.4-.4s.2-.4.4-.4h14.3c.2 0 .4.2.4.4s-.2.4-.4.4zM-116.1 79.3h-14.3c-.2 0-.4-.2-.4-.4s.2-.4.4-.4h14.3c.2 0 .4.2.4.4s-.2.4-.4.4zM-116.1 83.9h-14.3c-.2 0-.4-.2-.4-.4s.2-.4.4-.4h14.3c.2 0 .4.2.4.4s-.2.4-.4.4zM-116.1 88.5h-14.3c-.2 0-.4-.2-.4-.4s.2-.4.4-.4h14.3c.2 0 .4.2.4.4s-.2.4-.4.4zM-116.1 93.1h-14.3c-.2 0-.4-.2-.4-.4s.2-.4.4-.4h14.3c.2 0 .4.2.4.4s-.2.4-.4.4z"/><path class="st1" d="M-104.6 27h-12c-.8 0-1.5-.7-1.5-1.5v-19.8c0-.8.7-1.5 1.5-1.5h12c.8 0 1.5.7 1.5 1.5v19.7c0 .9-.7 1.6-1.5 1.6zm-12-21.8c-.3 0-.5.2-.5.5v19.7c0 .3.2.5.5.5h12c.3 0 .5-.2.5-.5v-19.7c0-.3-.2-.5-.5-.5h-12zM-103.8 11.4l-6.4-6.6h5.9l.5.5.2 5.4z"/><path class="st0" d="M-103.1 11.1l-6.9-6.9h-6.6c-.8 0-1.5.7-1.5 1.5v19.7c0 .8.7 1.5 1.5 1.5h12c.8 0 1.5-.7 1.5-1.5v-14.3zm-1.7-.2h-4.4c-.3 0-.5-.2-.5-.5v-4.4l4.9 4.9zm.7 14.6c0 .3-.2.5-.5.5h-12c-.3 0-.5-.2-.5-.5v-19.8c0-.3.2-.5.5-.5h5.9v5.1c0 .8.7 1.5 1.5 1.5h5.1v13.7zM-111.8 7.6h-4.1c-.2 0-.4-.2-.4-.4s.2-.4.4-.4h4.1c.2 0 .4.2.4.4s-.2.4-.4.4zM-111.8 10.3h-4.1c-.2 0-.4-.2-.4-.4s.2-.4.4-.4h4.1c.2 0 .4.2.4.4s-.2.4-.4.4zM-111.8 13h-4.1c-.2 0-.4-.2-.4-.4s.2-.4.4-.4h4.1c.2 0 .4.2.4.4 0 .3-.2.4-.4.4zM-105.4 15.8h-10.5c-.2 0-.4-.2-.4-.4s.2-.4.4-.4h10.5c.2 0 .4.2.4.4s-.2.4-.4.4z"/><path class="st2" d="M-105.4 18.9v4.8c0 .6-.4 1-1 1h-8.5c-.6 0-1-.4-1-1v-4.8c0-.6.4-1 1-1h8.5c.5 0 1 .5 1 1z"/><path class="st0" d="M-93.3 78h-4.1c-.2 0-.4-.2-.4-.4s.2-.4.4-.4h4.1c.2 0 .4.2.4.4.1.3-.1.4-.4.4zM-99.6 78h-4.1c-.2 0-.4-.2-.4-.4s.2-.4.4-.4h4.1c.2 0 .4.2.4.4 0 .3-.2.4-.4.4zM-93.3 80.8h-10.5c-.2 0-.4-.2-.4-.4s.2-.4.4-.4h10.5c.2 0 .4.2.4.4.1.2-.1.4-.4.4z"/><path class="st2" d="M-93.3 83.9v4.8c0 .6-.4 1-1 1h-8.5c-.6 0-1-.4-1-1v-4.8c0-.6.4-1 1-1h8.5c.6 0 1 .5 1 1z"/><path class="st1" d="M-98 64.1v9c0 .2-.2.4-.4.4s-.4-.2-.4-.4v-9c0-.2.2-.4.4-.4s.4.2.4.4zM-96.9 72.1c-.2-.2-.3-.3-.4-.3h-.1c-.2 0-.4.2-.4.4v.1c0 .2.1.3.3.4.1.2.2.3.2.6 0 .6-.4 1-1 1s-1-.4-1-1c0-.2.1-.4.2-.6.2-.1.3-.2.3-.4v-.1c0-.2-.2-.4-.4-.4h-.1c-.2 0-.3.1-.4.2h-.1c-.3.3-.5.8-.5 1.3 0 1.1.9 2 2 2s2-.9 2-2c-.1-.4-.3-.8-.6-1.2z"/><path class="st0" d="M-97 72M-97 72"/><path class="st0" d="M-92.4 69.2h-4.8999999999999995c-.2 0-.4.2-.4.4v.1c0 .2.2.4.4.4h5c.3 0 .5.2.5.5v19.7c0 .3-.2.5-.5.5h-12c-.3 0-.5-.2-.5-.5v-19.6c0-.3.2-.5.5-.5h5c.2 0 .4-.2.4-.4v-.1c0-.2-.2-.4-.4-.4h-4.8999999999999995c-.8 0-1.5.7-1.5 1.5v19.7c0 .8.7 1.5 1.5 1.5h12c.8 0 1.5-.7 1.5-1.5v-19.8c-.2-.8-.9-1.5-1.7-1.5zM-140.3 98.3h-19c-.8 0-1.5-.7-1.5-1.5v-26c0-.8.7-1.5 1.5-1.5h19c.8 0 1.5.7 1.5 1.5v26c0 .8-.7 1.5-1.5 1.5zm-19-28c-.3 0-.5.2-.5.5v26c0 .3.2.5.5.5h19c.3 0 .5-.2.5-.5v-26c0-.3-.2-.5-.5-.5h-19zM-150.3 75.6h-7.5c-.2 0-.4-.2-.4-.4s.2-.4.4-.4h7.5c.2 0 .4.2.4.4.1.2-.1.4-.4.4zM-154.6 78.9h-3.1c-.2 0-.4-.2-.4-.4s.2-.4.4-.4h3.1c.2 0 .4.2.4.4s-.2.4-.4.4zM-150.3 78.9h-2.5c-.2 0-.4-.2-.4-.4s.2-.4.4-.4h2.5c.2 0 .4.2.4.4s-.2.4-.4.4z"/><path class="st1" d="M-149.6 82.2h-8.1c-.2 0-.4-.2-.4-.4s.2-.4.4-.4h8.1c.2 0 .4.2.4.4s-.2.4-.4.4z"/><path class="st0" d="M-155.7 85.7h-2.1c-.2 0-.4-.2-.4-.4s.2-.4.4-.4h2.1c.2 0 .4.2.4.4s-.2.4-.4.4zM-145.2 85.7h-2.1c-.2 0-.4-.2-.4-.4s.2-.4.4-.4h2.1c.2 0 .4.2.4.4s-.1.4-.4.4zM-152.2 85.7h-2.1c-.2 0-.4-.2-.4-.4s.2-.4.4-.4h2.1c.2 0 .4.2.4.4s-.1.4-.4.4zM-148.7 85.7h-2.1c-.2 0-.4-.2-.4-.4s.2-.4.4-.4h2.1c.2 0 .4.2.4.4s-.1.4-.4.4zM-141.7 85.7h-2.1c-.2 0-.4-.2-.4-.4s.2-.4.4-.4h2.1c.2 0 .4.2.4.4s-.1.4-.4.4z"/><path class="st1" d="M-141.7 89.2h-16.1c-.2 0-.4-.2-.4-.4s.2-.4.4-.4h16.1c.2 0 .4.2.4.4s-.1.4-.4.4zM-142.5 82.2h-4.4c-.8 0-1.5-.7-1.5-1.5v-7.9c0-.8.7-1.5 1.5-1.5h4.4c.8 0 1.5.7 1.5 1.5v7.9c0 .9-.6 1.5-1.5 1.5zm-4.3-9.9c-.3 0-.5.2-.5.5v7.9c0 .3.2.5.5.5h4.4c.3 0 .5-.2.5-.5v-7.9c0-.3-.2-.5-.5-.5h-4.4z"/><path class="st0" d="M-141.7 92.3h-7.5c-.2 0-.4-.2-.4-.4s.2-.4.4-.4h7.5c.2 0 .4.2.4.4.1.2-.1.4-.4.4zM-141.7 95.3h-7.5c-.2 0-.4-.2-.4-.4s.2-.4.4-.4h7.5c.2 0 .4.2.4.4.1.2-.1.4-.4.4z"/><path class="st1" d="M-154.8 96.5h-.2c-1.8 0-3.2-1.4-3.2-3.2s1.4-3.2 3.2-3.2h.2c1.8 0 3.2 1.4 3.2 3.2s-1.5 3.2-3.2 3.2zm-.3-5.4c-1.2 0-2.2 1-2.2 2.2 0 1.2 1 2.2 2.2 2.2h.2c1.2 0 2.2-1 2.2-2.2 0-1.2-1-2.2-2.2-2.2h-.2z"/><path class="st0" d="M-150.3 72.2h-7.5c-.2 0-.4-.2-.4-.4s.2-.4.4-.4h7.5c.2 0 .4.2.4.4.1.2-.1.4-.4.4zM-35.5 77.5h-4.1c-.2 0-.4.2-.4.4s.2.4.4.4h4.1c.2 0 .4-.2.4-.4.1-.2-.1-.4-.4-.4zM-41.8 77.5h-4.1c-.2 0-.4.2-.4.4s.2.4.4.4h4.1c.2 0 .4-.2.4-.4s-.2-.4-.4-.4zM-35.5 74.8h-10.5c-.2 0-.4.2-.4.4s.2.4.4.4h10.5c.2 0 .4-.2.4-.4.1-.2-.1-.4-.4-.4z"/><path class="st2" d="M-35.5 71.7v-4.8c0-.6-.4-1-1-1h-8.5c-.6 0-1 .4-1 1v4.8c0 .6.4 1 1 1h8.5c.6 0 1-.5 1-1z"/><path class="st0" d="M-39.2 60.8M-39.3 60.7"/><path class="st0" d="M-33.2 61.2c0-.2-.1-3.9-1.4-5.7-1.3-1.7-3.3-2.6-5.9-2.6-.2 0-4.1-.1-6.2 1.9-.8.8-1.2 1.8-1.2 3.1.1.7.6 2 2 2 .7 0 1.1-.3 1.4-.5.5-.5.5-1.3.5-1.4 0 0 0-.5.4-1 .5-.6 1.6-.9 3-.9 1.6 0 2.7.6 3.3 1.9.4.8.6 2.8 0 3.6-.4.6-1.2.9-2.2.9h-7c-.8 0-1.5.7-1.5 1.5v15.2c0 .8.7 1.5 1.5 1.5h12c.8 0 1.5-.7 1.5-1.5v-3.2l-.2-14.8zm-1 14.8v3.2c0 .3-.2.5-.5.5h-12c-.3 0-.5-.2-.5-.5v-15.200000000000001c0-.3.2-.5.5-.5h7.3c1.3 0 2.3-.5 2.9-1.3.8-1.2.6-3.6.1-4.7s-1.7-2.4-4.2-2.4c-1.7 0-3 .4-3.8 1.2-.7.8-.7 1.6-.7 1.7 0 0 0 .4-.2.7-.1.1-.3.2-.6.2-.9 0-1-.9-1-1 0-.9.3-1.7.9-2.3 1.8-1.7 5.5-1.6 5.5-1.6 2.3 0 4 .8 5.1 2.2 1.2 1.6 1.2 5.1 1.2 5.1v14.7z"/><path class="st1" d="M-22.8 32l-.1-.2-.3-.2c-.2-.1-.4-.3-.7-.4-.5-.2-1-.4-1.4-.6l-.9-.3c-.2-.1-.5 0-.8 0-.6 0-1.1.1-1.7.3l-.3.1-7.4 3.1c-1.2.5-1.2 1.1-1.1 1.4.1.3.3.6.6.8 0 0 .1 0 .1.1l.2.1c1 .4 2 1 3.2 1 .7 0 1.4-.1 2-.4l7.4-3.1c1-.4 1.1-.9 1.1-1.2.2-.3.2-.4.1-.5z"/><path class="st4" d="M-26.7 39.9c-.5 0-1-.1-1.4-.2l-8.6-3.7c-.5-.2-.7-.6-.7-.8 0-.3 0-.9 1.1-1.4l7.4-3.1c1.1-.4 2.6-.5 3.4-.1l8.6 3.7c.7.3.8.7.8 1 0 .3-.2.8-1.1 1.2l-7.4 3.1c-.7.1-1.4.3-2.1.3zm-9.7-4.9s.1 0 .1.1l8.6 3.7c.6.3 1.8.2 2.6-.1l7.4-3.1c.3-.1.4-.2.5-.3 0 0-.1 0-.1-.1l-8.6-3.7c-.6-.3-1.8-.2-2.6.1l-7.4 3.1c-.3.1-.4.2-.5.3z"/><path class="st1" d="M-35.7 46.5l-.5.2c-1.2.5-1.2 1.1-1.1 1.4.1.3.3.6.6.8 0 0 .1 0 .1.1l.2.1c1 .4 2 1 3.2 1 .7 0 1.4-.1 2-.4l1.3-.6-5.8-2.6zM-35.8 43.9l-.5.2c-1.2.5-1.2 1.1-1.1 1.4.1.3.3.6.6.8 0 0 .1 0 .1.1l.2.1c1 .4 2 1 3.2 1 .7 0 1.4-.1 2-.4l1.3-.5-5.8-2.7zM-35.5 41.2l-.8.3c-1.2.5-1.2 1.1-1.1 1.4.1.3.3.6.6.8 0 0 .1 0 .1.1l.2.1c1 .4 2 1 3.2 1 .7 0 1.4-.1 2-.4l1.6-.6-5.8-2.7zM-35.7 38.5l-.6.2c-1.2.5-1.2 1.1-1.1 1.4.1.3.3.6.6.8 0 0 .1 0 .1.1l.2.1c1 .4 2 1 3.2 1 .7 0 1.4-.1 2-.4l1.4-.6-5.8-2.6zM-36.1 36.1l-.2.1c-1.2.5-1.2 1.1-1.1 1.4.1.3.3.6.6.8 0 0 .1 0 .1.1l.2.1c1 .4 2 1 3.2 1 .7 0 1.4-.1 2-.4l1-.4-5.8-2.7z"/><path class="st0" d="M-15.6 37.6c-.1-.3-.4-.4-.6-.3l-8.1 3.5h-.1l-.7.3c-.8.3-2 .4-2.6.1l-1.1-.5h-.1l-8-3.4c-.2-.1-.5 0-.6.2v.1c-.1.2 0 .5.2.6l8 3.4 1.1.5c.4.2.9.2 1.4.2.7 0 1.4-.1 2-.4l.7-.3 8.2-3.5c.3-.1.4-.3.3-.5zM-15.6 40.2c-.1-.3-.4-.4-.6-.3l-8.1 3.5h-.1l-.7.3c-.8.3-2 .4-2.6.1l-1.1-.5h-.1l-8-3.4c-.2-.1-.5 0-.6.2v.1c-.1.2 0 .5.2.6l8 3.4 1.1.5c.4.2.9.2 1.4.2.7 0 1.4-.1 2-.4l.7-.3 8.2-3.5c.3 0 .4-.3.3-.5zM-15.6 42.9c-.1-.3-.4-.4-.6-.3l-8.1 3.5h-.1l-.7.3c-.8.3-2 .4-2.6.1l-1.1-.5h-.1l-8-3.4c-.2-.1-.5 0-.6.2v.1c-.1.2 0 .5.2.6l8 3.4 1.1.5c.4.2.9.2 1.4.2.7 0 1.4-.1 2-.4l.7-.3 8.2-3.5c.3-.1.4-.3.3-.5zM-15.6 45.5c-.1-.3-.4-.4-.6-.3l-8.1 3.5h-.1l-.7.3c-.8.3-2 .4-2.6.1l-1.1-.5h-.1l-8-3.4c-.2-.1-.5 0-.6.2v.1c-.1.2 0 .5.2.6l8 3.4 1.1.5c.4.2.9.2 1.4.2.7 0 1.4-.1 2-.4l.7-.3 8.2-3.5c.3 0 .4-.3.3-.5zM-15.6 48.2c-.1-.3-.4-.4-.6-.3l-8.1 3.5h-.1l-.7.3c-.8.3-2 .4-2.6.1l-1.1-.5h-.1l-8-3.4c-.2-.1-.5 0-.6.2v.1c-.1.2 0 .5.2.6l8 3.4 1.1.5c.4.2.9.2 1.4.2.7 0 1.4-.1 2-.4l.7-.3 8.2-3.5c.3-.1.4-.3.3-.5zM69.5 11.2h-11.1c-.2 0-.4-.2-.4-.4s.2-.4.4-.4h11.1c.2 0 .4.2.4.4.1.2-.1.4-.4.4zM63.3 15h-4.9c-.2 0-.4-.2-.4-.4s.2-.4.4-.4h4.9c.2 0 .4.2.4.4s-.2.4-.4.4zM69.6 15h-4.9c-.2 0-.4-.2-.4-.4s.2-.4.4-.4h4.9c.2 0 .4.2.4.4s-.2.4-.4.4zM67.6 18.7h-18.9c-.2 0-.4.2-.4.4s.2.4.4.4h18.9c.2 0 .4-.2.4-.4s-.2-.4-.4-.4z"/><path class="st2" d="M55.2 15.7h-7.9c-.6 0-1-.4-1-1v-4.4c0-.6.4-1 1-1h7.9c.6 0 1 .4 1 1v4.4c0 .5-.4 1-1 1z"/><path class="st0" d="M70.6 22.3h-24.8c-.8 0-1.5-.7-1.5-1.5v-12.8c0-.8.7-1.5 1.5-1.5h24.8c.8 0 1.5.7 1.5 1.5v12.8c0 .8-.7 1.5-1.5 1.5zm-24.8-14.8c-.3 0-.5.2-.5.5v12.8c0 .3.2.5.5.5h24.8c.3 0 .5-.2.5-.5v-12.8c0-.3-.2-.5-.5-.5h-24.8z"/><path class="st1" d="M52.2-2c-.2 0-.4-.2-.4-.4s.2-.4.4-.4.4.2.4.4c.1.2-.1.4-.4.4z"/><path class="st0" d="M50.3-4.3h-15.500000000000002c-.2 0-.4.2-.4.4s.2.4.4.4h15.500000000000002c.2 0 .4-.2.4-.4s-.2-.4-.4-.4z"/><path class="st1" d="M52.2-3.7c-.2 0-.4-.2-.4-.4s.2-.4.4-.4.4.2.4.4c.1.3-.1.4-.4.4zM52.2-5.3c-.2 0-.4-.2-.4-.4s.2-.4.4-.4.4.2.4.4c.1.2-.1.4-.4.4zM52.2-7c-.2 0-.4-.2-.4-.4s.2-.4.4-.4.4.2.4.4c.1.3-.1.4-.4.4zM52.2-8.6c-.2 0-.4-.2-.4-.4s.2-.4.4-.4.4.2.4.4c.1.2-.1.4-.4.4zM52.2-10.3c-.2 0-.4-.2-.4-.4s.2-.4.4-.4.4.2.4.4c.1.3-.1.4-.4.4zM52.2-11.9c-.2 0-.4-.2-.4-.4s.2-.4.4-.4.4.2.4.4c.1.2-.1.4-.4.4zM52.2-13.5c-.2 0-.4-.2-.4-.4s.2-.4.4-.4.4.2.4.4c.1.2-.1.4-.4.4zM50.2-7.7h-4.4c-.2 0-.4-.2-.4-.4s.2-.4.4-.4h4.4c.2 0 .4.2.4.4s-.1.4-.4.4zM50.2-12.2h-4.4c-.2 0-.4-.2-.4-.4s.2-.4.4-.4h4.4c.2 0 .4.2.4.4s-.1.4-.4.4z"/><path class="st0" d="M54.8-6.5v4.4c0 .2-.2.4-.4.4s-.4-.2-.4-.4v-4.4c0-.2.2-.4.4-.4.2-.1.4.1.4.4zM54.8-14.2v4.4c0 .2-.2.4-.4.4s-.4-.2-.4-.4v-4.4c0-.2.2-.4.4-.4.2-.1.4.1.4.4z"/><path class="st1" d="M57.6-14.1v12.1c0 .2-.2.4-.4.4s-.4-.2-.4-.4v-12.1c0-.2.2-.4.4-.4.2-.1.4.1.4.4zM52.2-15.2c-.2 0-.4-.2-.4-.4s.2-.4.4-.4.4.2.4.4c.1.2-.1.4-.4.4zM52.2-.4c-.2 0-.4-.2-.4-.4s.2-.4.4-.4.4.2.4.4c.1.2-.1.4-.4.4z"/><path class="st0" d="M59.1-16.2h-5.8999999999999995c-.2 0-.4.2-.4.4v.1c0 .2.2.4.4.4h5.8999999999999995c.3 0 .5.2.5.5v12.9c0 .3-.2.5-.5.5h-5.8999999999999995c-.2 0-.4.2-.4.4v.1c0 .2.2.4.4.4h5.8999999999999995c.8 0 1.4-.7 1.4-1.5v-12.7c0-.8-.6-1.5-1.4-1.5z"/><path class="st2" d="M43.2-7.2h-7c-.6 0-1-.4-1-1v-4.4c0-.6.4-1 1-1h7c.6 0 1 .4 1 1v4.4c0 .6-.5 1-1 1z"/><path class="st0" d="M33.5-8.5v-6.2c0-.3.2-.5.5-.5h17.3c.2 0 .4-.2.4-.4v-.1c0-.2-.2-.4-.4-.4h-17.299999999999997c-.8 0-1.5.7-1.5 1.5v12.7c0 .8.7 1.5 1.5 1.5h17.3c.2 0 .4-.2.4-.4v-.1c0-.2-.2-.4-.4-.4h-17.299999999999997c-.3 0-.5-.2-.5-.5v-6.7zM75.2 25.8h-19c-.8 0-1.5.7-1.5 1.5v25.1c0 .8.7 1.5 1.5 1.5h19c.8 0 1.5-.7 1.5-1.5v-25.1c0-.8-.7-1.5-1.5-1.5zm.5 23.4v3.2c0 .3-.2.5-.5.5h-19c-.3 0-.5-.2-.5-.5v-25.1c0-.3.2-.5.5-.5h19c.3 0 .5.2.5.5v21.9z"/><path class="st1" d="M128.3 6.9h-5.6c-.8 0-1.5-.7-1.5-1.5v-2.7c0-.8.7-1.5 1.5-1.5h5.6c.8 0 1.5.7 1.5 1.5v2.7c0 .8-.7 1.5-1.5 1.5zm-5.6-4.7c-.3 0-.5.2-.5.5v2.7c0 .3.2.5.5.5h5.6c.3 0 .5-.2.5-.5v-2.7c0-.3-.2-.5-.5-.5h-5.6z"/><path class="st0" d="M138.9 4.5h-7.5c-.2 0-.4-.2-.4-.4s.2-.4.4-.4h7.5c.2 0 .4.2.4.4s-.2.4-.4.4z"/><path class="st1" d="M137.8 12.8h-5.6c-.8 0-1.5-.7-1.5-1.5v-2.7c0-.8.7-1.5 1.5-1.5h5.6c.8 0 1.5.7 1.5 1.5v2.7c0 .8-.6 1.5-1.5 1.5zm-5.5-4.7c-.3 0-.5.2-.5.5v2.7c0 .3.2.5.5.5h5.6c.3 0 .5-.2.5-.5v-2.7c0-.3-.2-.5-.5-.5h-5.6z"/><path class="st0" d="M121.7 10.4h7.5c.2 0 .4-.2.4-.4s-.2-.4-.4-.4h-7.5c-.2 0-.4.2-.4.4-.1.2.1.4.4.4z"/><path class="st1" d="M128.3 18.6h-5.6c-.8 0-1.5-.7-1.5-1.5v-2.7c0-.8.7-1.5 1.5-1.5h5.6c.8 0 1.5.7 1.5 1.5v2.7c0 .8-.7 1.5-1.5 1.5zm-5.6-4.7c-.3 0-.5.2-.5.5v2.7c0 .3.2.5.5.5h5.6c.3 0 .5-.2.5-.5v-2.7c0-.3-.2-.5-.5-.5h-5.6z"/><path class="st0" d="M138.9 16.2h-7.5c-.2 0-.4-.2-.4-.4s.2-.4.4-.4h7.5c.2 0 .4.2.4.4s-.2.4-.4.4z"/><path class="st1" d="M138.3 21.4h-16.1c-.2 0-.4-.2-.4-.4s.2-.4.4-.4h16.1c.2 0 .4.2.4.4.1.2-.1.4-.4.4zM138.3 24.5h-16.1c-.2 0-.4-.2-.4-.4s.2-.4.4-.4h16.1c.2 0 .4.2.4.4.1.2-.1.4-.4.4z"/><path class="st0" d="M140-1h-19c-.8 0-1.5.7-1.5 1.5v25c0 .8.7 1.5 1.5 1.5h19c.8 0 1.5-.7 1.5-1.5v-25c0-.8-.6-1.5-1.5-1.5zm.5 24.8v1.8c0 .3-.2.5-.5.5h-19c-.3 0-.5-.2-.5-.5v-25.1c0-.3.2-.5.5-.5h19c.3 0 .5.2.5.5v23.299999999999997z"/></svg>