<svg xmlns="http://www.w3.org/2000/svg" width="28" height="28" viewBox="0 0 28 28"><style type="text/css">.st0{fill:#29CCE2;} .st1{fill:#4D4D4D;} .st2{fill:none;stroke:#4D4D4D;stroke-miterlimit:10;} .st3{fill:none;stroke:#29CCE2;stroke-miterlimit:10;} .st4{fill:#00CDE4;}</style><path class="st0" d="M127.9-31.9h-6.5c-.2 0-.3-.1-.3-.3v-.2c0-.2.1-.3.3-.3h6.5c.2 0 .3.1.3.3v.2c.1.1-.1.3-.3.3z"/><path class="st1" d="M139.3-35.2h-19c-1.1 0-2-.8-2-1.8v-5.4c0-1 .9-1.8 2-1.8h19c1.1 0 2 .8 2 1.8v5.4c0 1-.9 1.8-2 1.8zm-19-8.1c-.6 0-1 .4-1 .9v5.4c0 .5.4.9 1 .9h19c.6 0 1-.4 1-.9v-5.4c0-.5-.4-.9-1-.9h-19z"/><path class="st0" d="M139.3-16.2h-19c-.8 0-1.5-.6-1.5-1.4v-6.4c0-.8.7-1.4 1.5-1.4h19c.8 0 1.5.6 1.5 1.4v6.3c0 .9-.7 1.5-1.5 1.5zm-19-8.2c-.3 0-.5.2-.5.5v6.3c0 .3.2.5.5.5h19c.3 0 .5-.2.5-.5v-6.4c0-.3-.2-.5-.5-.5h-19zM139.3-26h-19c-.8 0-1.5-.6-1.5-1.4v-5.9c0-.8.7-1.4 1.5-1.4h19c.8 0 1.5.6 1.5 1.4v5.9c0 .8-.7 1.4-1.5 1.4zm-19-7.8c-.3 0-.5.2-.5.5v5.9c0 .3.2.5.5.5h19c.3 0 .5-.2.5-.5v-5.9c0-.3-.2-.5-.5-.5h-19z"/><path class="st1" d="M136.2-36.1v2.5c0 .2-.2.4-.4.4s-.4-.2-.4-.4v-2.5c0-.2.2-.4.4-.4s.4.2.4.4zM132.2-36.1v2.5c0 .2-.2.4-.4.4s-.4-.2-.4-.4v-2.5c0-.2.2-.4.4-.4s.4.2.4.4zM128.3-36.1v2.5c0 .2-.2.4-.4.4s-.4-.2-.4-.4v-2.5c0-.2.2-.4.4-.4s.4.2.4.4zM124.3-36.1v2.5c0 .2-.2.4-.4.4s-.4-.2-.4-.4v-2.5c0-.2.2-.4.4-.4s.4.2.4.4zM136.2-26.9v2.5c0 .2-.2.4-.4.4s-.4-.2-.4-.4v-2.5c0-.2.2-.4.4-.4s.4.1.4.4zM132.2-26.9v2.5c0 .2-.2.4-.4.4s-.4-.2-.4-.4v-2.5c0-.2.2-.4.4-.4s.4.1.4.4zM128.3-26.9v2.5c0 .2-.2.4-.4.4s-.4-.2-.4-.4v-2.5c0-.2.2-.4.4-.4s.4.1.4.4zM124.3-26.9v2.5c0 .2-.2.4-.4.4s-.4-.2-.4-.4v-2.5c0-.2.2-.4.4-.4s.4.1.4.4z"/><path class="st0" d="M123-30.4h-1.5c-.2 0-.3-.1-.3-.3v-.2c0-.2.1-.3.3-.3h1.5c.2 0 .3.1.3.3v.2c0 .1-.1.3-.3.3zM126.9-30.4h-1.5c-.2 0-.3-.1-.3-.3v-.2c0-.2.1-.3.3-.3h1.5c.2 0 .3.1.3.3v.2c.1.1-.1.3-.3.3zM130.8-30.4h-1.5c-.2 0-.3-.1-.3-.3v-.2c0-.2.1-.3.3-.3h1.5c.2 0 .3.1.3.3v.2c.1.1-.1.3-.3.3zM134.8-30.4h-1.5c-.2 0-.3-.1-.3-.3v-.2c0-.2.1-.3.3-.3h1.5c.2 0 .3.1.3.3v.2c0 .1-.1.3-.3.3zM123-30.4h-1.5c-.2 0-.3-.1-.3-.3v-.2c0-.2.1-.3.3-.3h1.5c.2 0 .3.1.3.3v.2c0 .1-.1.3-.3.3z"/><path class="st1" d="M138.7-30.4h-1.5c-.2 0-.3-.1-.3-.3v-.2c0-.2.1-.3.3-.3h1.5c.2 0 .3.1.3.3v.2c0 .1-.1.3-.3.3z"/><path class="st0" d="M126.9-29.1h-1.5c-.2 0-.3-.1-.3-.3v-.2c0-.2.1-.3.3-.3h1.5c.2 0 .3.1.3.3v.2c.1.1-.1.3-.3.3zM130.8-29.1h-1.5c-.2 0-.3-.1-.3-.3v-.2c0-.2.1-.3.3-.3h1.5c.2 0 .3.1.3.3v.2c.1.1-.1.3-.3.3zM134.8-29.1h-1.5c-.2 0-.3-.1-.3-.3v-.2c0-.2.1-.3.3-.3h1.5c.2 0 .3.1.3.3v.2c0 .1-.1.3-.3.3zM123-29.1h-1.5c-.2 0-.3-.1-.3-.3v-.2c0-.2.1-.3.3-.3h1.5c.2 0 .3.1.3.3v.2c0 .1-.1.3-.3.3z"/><path class="st1" d="M138.7-29.1h-1.5c-.2 0-.3-.1-.3-.3v-.2c0-.2.1-.3.3-.3h1.5c.2 0 .3.1.3.3v.2c0 .1-.1.3-.3.3z"/><path class="st0" d="M126.9-27.9h-1.5c-.2 0-.3-.1-.3-.3v-.2c0-.2.1-.3.3-.3h1.5c.2 0 .3.1.3.3v.2c.1.2-.1.3-.3.3zM130.8-27.9h-1.5c-.2 0-.3-.1-.3-.3v-.2c0-.2.1-.3.3-.3h1.5c.2 0 .3.1.3.3v.2c.1.2-.1.3-.3.3zM134.8-27.9h-1.5c-.2 0-.3-.1-.3-.3v-.2c0-.2.1-.3.3-.3h1.5c.2 0 .3.1.3.3v.2c0 .2-.1.3-.3.3zM123-27.9h-1.5c-.2 0-.3-.1-.3-.3v-.2c0-.2.1-.3.3-.3h1.5c.2 0 .3.1.3.3v.2c0 .2-.1.3-.3.3z"/><path class="st1" d="M138.7-27.9h-1.5c-.2 0-.3-.1-.3-.3v-.2c0-.2.1-.3.3-.3h1.5c.2 0 .3.1.3.3v.2c0 .2-.1.3-.3.3z"/><path class="st0" d="M127.9-22.3h-6.5c-.2 0-.3-.1-.3-.3v-.2c0-.2.1-.3.3-.3h6.5c.2 0 .3.1.3.3v.2c.1.2-.1.3-.3.3zM123-20.8h-1.5c-.2 0-.3-.1-.3-.3v-.2c0-.2.1-.3.3-.3h1.5c.2 0 .3.1.3.3v.2c0 .2-.1.3-.3.3zM126.9-20.8h-1.5c-.2 0-.3-.1-.3-.3v-.2c0-.2.1-.3.3-.3h1.5c.2 0 .3.1.3.3v.2c.1.2-.1.3-.3.3zM130.8-20.8h-1.5c-.2 0-.3-.1-.3-.3v-.2c0-.2.1-.3.3-.3h1.5c.2 0 .3.1.3.3v.2c.1.2-.1.3-.3.3zM134.8-20.8h-1.5c-.2 0-.3-.1-.3-.3v-.2c0-.2.1-.3.3-.3h1.5c.2 0 .3.1.3.3v.2c0 .2-.1.3-.3.3zM123-20.8h-1.5c-.2 0-.3-.1-.3-.3v-.2c0-.2.1-.3.3-.3h1.5c.2 0 .3.1.3.3v.2c0 .2-.1.3-.3.3z"/><path class="st1" d="M138.7-20.8h-1.5c-.2 0-.3-.1-.3-.3v-.2c0-.2.1-.3.3-.3h1.5c.2 0 .3.1.3.3v.2c0 .2-.1.3-.3.3z"/><path class="st0" d="M126.9-19.5h-1.5c-.2 0-.3-.1-.3-.3v-.2c0-.2.1-.3.3-.3h1.5c.2 0 .3.1.3.3v.2c.1.2-.1.3-.3.3zM130.8-19.5h-1.5c-.2 0-.3-.1-.3-.3v-.2c0-.2.1-.3.3-.3h1.5c.2 0 .3.1.3.3v.2c.1.2-.1.3-.3.3zM134.8-19.5h-1.5c-.2 0-.3-.1-.3-.3v-.2c0-.2.1-.3.3-.3h1.5c.2 0 .3.1.3.3v.2c0 .2-.1.3-.3.3zM123-19.5h-1.5c-.2 0-.3-.1-.3-.3v-.2c0-.2.1-.3.3-.3h1.5c.2 0 .3.1.3.3v.2c0 .2-.1.3-.3.3z"/><path class="st1" d="M138.7-19.5h-1.5c-.2 0-.3-.1-.3-.3v-.2c0-.2.1-.3.3-.3h1.5c.2 0 .3.1.3.3v.2c0 .2-.1.3-.3.3z"/><path class="st0" d="M126.9-18.2h-1.5c-.2 0-.3-.1-.3-.3v-.2c0-.2.1-.3.3-.3h1.5c.2 0 .3.1.3.3v.2c.1.1-.1.3-.3.3zM130.8-18.2h-1.5c-.2 0-.3-.1-.3-.3v-.2c0-.2.1-.3.3-.3h1.5c.2 0 .3.1.3.3v.2c.1.1-.1.3-.3.3zM134.8-18.2h-1.5c-.2 0-.3-.1-.3-.3v-.2c0-.2.1-.3.3-.3h1.5c.2 0 .3.1.3.3v.2c0 .1-.1.3-.3.3zM123-18.2h-1.5c-.2 0-.3-.1-.3-.3v-.2c0-.2.1-.3.3-.3h1.5c.2 0 .3.1.3.3v.2c0 .1-.1.3-.3.3z"/><path class="st1" d="M138.7-18.2h-1.5c-.2 0-.3-.1-.3-.3v-.2c0-.2.1-.3.3-.3h1.5c.2 0 .3.1.3.3v.2c0 .1-.1.3-.3.3zM67.6-30.2h-4.6c-.3 0-.5-.1-.6-.3-.1-.2-.2-.4-.1-.7l1.9-8.3-.5-1.8c0 .1-2.3 9.8-2.3 9.8-.2.6-.1 1.2.3 1.6.3.4.8.7 1.4.7h5.6l-1.1-1z"/><path class="st0" d="M88-29.2h-19.9c-.8 0-1.5-.6-1.8-1.4l-2.7-9.8c-.1-.4-.1-.8.2-1.2.2-.3.6-.5 1-.5h19.9c.8 0 1.5.6 1.8 1.4l2.7 9.8c.1.4.1.8-.2 1.2-.2.3-.6.5-1 .5zm-23.2-11.8c-.1 0-.2 0-.2.1s-.1.2 0 .3l2.7 9.8c.1.3.5.6.8.6h19.9c.1 0 .2 0 .2-.1s.1-.2 0-.3l-2.7-9.8c-.1-.3-.5-.6-.8-.6h-19.9zM73.1-39.3h-6.2c-.2 0-.5-.2-.6-.4-.1-.2 0-.4.3-.4h6.2c.2 0 .5.2.6.4.1.2 0 .4-.3.4zM68.8-37.3h-1.3c-.2 0-.5-.2-.6-.4-.1-.2 0-.4.3-.4h1.3c.2 0 .5.2.6.4.1.2 0 .4-.3.4zM72.8-37.3h-1.3c-.2 0-.5-.2-.6-.4-.1-.2 0-.4.3-.4h1.3c.2 0 .5.2.6.4 0 .2-.1.4-.3.4zM76.7-37.3h-1.3c-.2 0-.5-.2-.6-.4-.1-.2 0-.4.3-.4h1.3c.2 0 .5.2.6.4.1.2-.1.4-.3.4zM80.6-37.3h-1.3c-.2 0-.5-.2-.6-.4-.1-.2 0-.4.3-.4h1.3c.2 0 .5.2.6.4.1.2 0 .4-.3.4zM68.8-37.3h-1.3c-.2 0-.5-.2-.6-.4-.1-.2 0-.4.3-.4h1.3c.2 0 .5.2.6.4.1.2 0 .4-.3.4z"/><path class="st1" d="M84.5-37.3h-1.3c-.2 0-.5-.2-.6-.4-.1-.2 0-.4.3-.4h1.3c.2 0 .5.2.6.4.1.2 0 .4-.3.4z"/><path class="st0" d="M73.4-35.4h-1.3c-.2 0-.5-.2-.6-.4-.1-.2 0-.4.3-.4h1.3c.2 0 .5.2.6.4.1.2 0 .4-.3.4zM77.4-35.4h-1.3c-.2 0-.5-.2-.6-.4-.1-.2 0-.4.3-.4h1.3c.2 0 .5.2.6.4 0 .2-.1.4-.3.4zM81.3-35.4h-1.3c-.2 0-.5-.2-.6-.4-.1-.2 0-.4.3-.4h1.3c.2 0 .5.2.6.4.1.2-.1.4-.3.4zM69.5-35.4h-1.3c-.2 0-.5-.2-.6-.4-.1-.2 0-.4.3-.4h1.3c.2 0 .5.2.6.4.1.2 0 .4-.3.4z"/><path class="st1" d="M85.2-35.4h-1.3c-.2 0-.5-.2-.6-.4-.1-.2 0-.4.3-.4h1.3c.2 0 .5.2.6.4.1.2-.1.4-.3.4z"/><path class="st0" d="M74.1-33.4h-1.3c-.2 0-.5-.2-.6-.4-.1-.2 0-.4.3-.4h1.3c.2 0 .5.2.6.4.1.2 0 .4-.3.4zM78-33.4h-1.3c-.2 0-.5-.2-.6-.4-.1-.2 0-.4.3-.4h1.3c.2 0 .5.2.6.4.1.2 0 .4-.3.4zM82-33.4h-1.3c-.2 0-.5-.2-.6-.4-.1-.2 0-.4.3-.4h1.3c.2 0 .5.2.6.4 0 .2-.1.4-.3.4zM70.2-33.4h-1.3c-.2 0-.5-.2-.6-.4-.1-.2 0-.4.3-.4h1.3c.2 0 .5.2.6.4.1.2-.1.4-.3.4z"/><path class="st1" d="M85.9-33.4h-1.3c-.2 0-.5-.2-.6-.4-.1-.2 0-.4.3-.4h1.3c.2 0 .5.2.6.4 0 .2-.1.4-.3.4z"/><path class="st0" d="M74.8-31.4h-1.3c-.2 0-.5-.2-.6-.4-.1-.2 0-.4.3-.4h1.3c.2 0 .5.2.6.4.1.2-.1.4-.3.4zM78.7-31.4h-1.3c-.2 0-.5-.2-.6-.4-.1-.2 0-.4.3-.4h1.3c.2 0 .5.2.6.4.1.2-.1.4-.3.4zM82.6-31.4h-1.3c-.2 0-.5-.2-.6-.4-.1-.2 0-.4.3-.4h1.3c.2 0 .5.2.6.4.1.2 0 .4-.3.4zM70.9-31.4h-1.3c-.2 0-.5-.2-.6-.4-.1-.2 0-.4.3-.4h1.3c.2 0 .5.2.6.4 0 .2-.1.4-.3.4z"/><path class="st1" d="M86.6-31.4h-1.3c-.2 0-.5-.2-.6-.4-.1-.2 0-.4.3-.4h1.3c.2 0 .5.2.6.4 0 .2-.1.4-.3.4zM78.7-43.3l.3 1.2c.1.2-.1.5-.3.5h-.1c-.2.1-.5-.1-.5-.3l-.4-1.1c-.1-.2.1-.5.3-.5h.1c.3-.1.5 0 .6.2zM74.9-43.3l.3 1.2c.1.2-.1.5-.3.5h-.1c-.2.1-.5-.1-.5-.3l-.3-1.1c-.1-.2.1-.5.3-.5h.1c.2-.1.5 0 .5.2zM71.2-43.3l.3 1.2c.1.2-.1.5-.3.5h-.1c-.2.1-.5-.1-.5-.3l-.3-1.1c-.1-.2.1-.5.3-.5h.1c.2-.1.5 0 .5.2zM67.5-43.3l.3 1.2c.1.2-.1.5-.3.5h-.1c-.2.1-.5-.1-.5-.3l-.3-1.1c-.1-.2.1-.5.3-.5h.1c.2-.1.4 0 .5.2zM82.4-43.3l.3 1.2c.1.2-.1.5-.3.5h-.1c-.2.1-.5-.1-.5-.3l-.3-1.1c-.1-.2.1-.5.3-.5h.1c.2-.1.4 0 .5.2z"/><path class="st0" d="M65.2 29.7h-7.4c-.2 0-.4-.2-.4-.4s.2-.4.4-.4h7.4c.2 0 .4.2.4.4s-.2.4-.4.4zM60.9 33.8h-3.1c-.2 0-.4-.2-.4-.4s.2-.4.4-.4h3.1c.2 0 .4.2.4.4s-.2.4-.4.4zM65.2 33.8h-2.5c-.2 0-.4-.2-.4-.4s.2-.4.4-.4h2.5c.2 0 .4.2.4.4s-.2.4-.4.4z"/><path class="st1" d="M65.1 37.8h-7.4c-.2 0-.4-.2-.4-.4s.2-.4.4-.4h7.4c.2 0 .4.2.4.4s-.2.4-.4.4z"/><path class="st0" d="M59.8 41.6h-2.1c-.2 0-.4-.2-.4-.4s.2-.4.4-.4h2.1c.2 0 .4.2.4.4s-.2.4-.4.4zM70.3 41.6h-2.1c-.2 0-.4-.2-.4-.4s.2-.4.4-.4h2.1c.2 0 .4.2.4.4s-.1.4-.4.4zM63.3 41.6h-2.1c-.2 0-.4-.2-.4-.4s.2-.4.4-.4h2.1c.2 0 .4.2.4.4s-.1.4-.4.4zM66.8 41.6h-2.1c-.2 0-.4-.2-.4-.4s.2-.4.4-.4h2.1c.2 0 .4.2.4.4s-.1.4-.4.4zM73.8 41.6h-2.1c-.2 0-.4-.2-.4-.4s.2-.4.4-.4h2.1c.2 0 .4.2.4.4s-.1.4-.4.4z"/><path class="st1" d="M73.8 44.9h-16.1c-.2 0-.4-.2-.4-.4s.2-.4.4-.4h16.1c.2 0 .4.2.4.4s-.1.4-.4.4z"/><path class="st0" d="M65.2 48.2h-7.5c-.2 0-.4-.2-.4-.4s.2-.4.4-.4h7.5c.2 0 .4.2.4.4.1.2-.1.4-.4.4zM73.8 48.2h-7.5c-.2 0-.4-.2-.4-.4s.2-.4.4-.4h7.5c.2 0 .4.2.4.4.1.2-.1.4-.4.4z"/><path class="st1" d="M70.3 51.4h-2.1c-.2 0-.4-.2-.4-.4s.2-.4.4-.4h2.1c.2 0 .4.2.4.4.1.2-.1.4-.4.4zM73.8 51.4h-2.1c-.2 0-.4-.2-.4-.4s.2-.4.4-.4h2.1c.2 0 .4.2.4.4s-.1.4-.4.4zM63.3 51.4h-2.1c-.2 0-.4-.2-.4-.4s.2-.4.4-.4h2.1c.2 0 .4.2.4.4.1.2-.1.4-.4.4zM66.8 51.4h-2.1c-.2 0-.4-.2-.4-.4s.2-.4.4-.4h2.1c.2 0 .4.2.4.4.1.2-.1.4-.4.4zM59.8 51.4h-2.1c-.2 0-.4-.2-.4-.4s.2-.4.4-.4h2.1c.2 0 .4.2.4.4.1.2-.1.4-.4.4z"/><path class="st2" d="M74 29.4v7.9c0 .6-.4 1-1 1h-4.4c-.6 0-1-.4-1-1v-7.9c0-.6.4-1 1-1h4.4c.6 0 1 .5 1 1z"/><path class="st0" d="M112.3-31.3c-.3-.2-.6-.2-1-.1l-7.4 2.7c-.2.1-.4.2-.6.4-.2-.2-.4-.4-.6-.4l-7.4-2.7c-.3-.1-.7-.1-.9.1-.3-.2-.6-.2-.9-.1l-7.4 2.7c-.6.2-1.1.9-1.1 1.6v22.5c0 .4.2.7.4.9.2.1.4.2.6.2.1 0 .3 0 .4-.1l7.4-2.7c.2-.1.4-.3.6-.5.2.2.4.4.6.5l7.4 2.7.4.1c.2 0 .4-.1.5-.2.2.1.3.2.5.2.1 0 .3 0 .4-.1l7.4-2.7c.6-.2 1.1-.9 1.1-1.6v-22.5c0-.4-.2-.7-.4-.9zm-18.5 23.5c0 .3-.2.6-.4.7l-7.5 2.7v-22.6c0-.3.2-.6.4-.7l7.5-2.7v22.6zm8.9 3.3l-7.4-2.7c-.2-.1-.4-.4-.4-.7v-22.5c0-.1 0-.1.1-.1l7.4 2.7c.2.1.4.4.4.7v22.5c0 .1-.1.1-.1.1zm9-3.3c0 .3-.2.6-.4.7l-7.5 2.7v-22.6c0-.3.2-.6.4-.7l7.5-2.7v22.6z"/><path class="st1" d="M101.2-6.4c-.2 0-.3 0-.5-.1l-4.2-1.5c-.7-.3-1.3-1.1-1.3-1.8v-6.3c0-.4.2-.8.5-1 .3-.2.7-.3 1.1-.1l4.2 1.6c.7.3 1.3 1.1 1.3 1.8v6.3c0 .4-.2.8-.5 1-.1.1-.3.1-.6.1zm-4.9-9.9c-.1 0-.1.1-.1.2v6.3c0 .3.3.7.7.9l4.2 1.6c.1.1.2 0 .3 0 0 0 .1-.1.1-.2v-6.3c0-.3-.3-.7-.7-.9l-4.2-1.6h-.3z"/><path class="st0" d="M101.1-25.6l-4.7-1.8c-.2-.1-.4-.3-.4-.6 0-.2.2-.4.4-.3l4.7 1.8c.2.1.4.3.4.6 0 .2-.2.3-.4.3zM101.1-23.4l-4.7-1.8c-.2-.1-.4-.3-.4-.6 0-.2.2-.4.4-.3l4.7 1.8c.2.1.4.3.4.6 0 .2-.2.4-.4.3zM101.1-21.2l-4.7-1.8c-.2-.1-.4-.3-.4-.6 0-.2.2-.4.4-.3l4.7 1.8c.2.1.4.3.4.6s-.2.4-.4.3zM98.2-20.1l-1.8-.7c-.2-.1-.4-.3-.4-.6 0-.2.2-.4.4-.3l1.8.7c.2.1.4.3.4.6s-.2.4-.4.3zM101.1-16.8l-4.7-1.8c-.2-.1-.4-.3-.4-.6 0-.2.2-.4.4-.3l4.7 1.8c.2.1.4.3.4.6s-.2.4-.4.3z"/><path class="st1" d="M87.2-17.8c-.2 0-.4-.1-.6-.2-.3-.2-.5-.6-.5-1v-6.3c0-.7.6-1.5 1.3-1.8l4.2-1.7c.4-.2.8-.1 1.2.1.3.2.5.6.5 1v6.3c0 .7-.6 1.5-1.3 1.8l-4.2 1.7c-.3 0-.5.1-.6.1zm4.9-10.1h-.2l-4.2 1.7c-.3.1-.7.6-.7.9v6.5h.3l4.2-1.7c.3-.1.7-.6.7-.9v-6.3c0-.1 0-.2-.1-.2z"/><path class="st0" d="M92.2-17.5l-4.7 1.8c-.2.1-.4 0-.4-.3 0-.2.2-.5.4-.6l4.7-1.8c.2-.1.4 0 .4.3s-.2.5-.4.6zM92.2-15.3l-4.7 1.8c-.2.1-.4 0-.4-.3 0-.2.2-.5.4-.6l4.7-1.8c.2-.1.4 0 .4.3s-.2.5-.4.6zM92.2-13.1l-4.7 1.8c-.2.1-.4 0-.4-.3 0-.2.2-.5.4-.6l4.7-1.8c.2-.1.4 0 .4.3s-.2.5-.4.6zM92.2-10.9l-4.7 1.9c-.3.1-.5 0-.5-.3 0-.2.2-.5.4-.6l4.7-1.8c.2-.1.4 0 .4.3.1.2-.1.5-.3.5zM89-7.4l-1.6.6c-.2.1-.4 0-.4-.3 0-.2.2-.5.4-.6l1.6-.6c.2-.1.4 0 .4.3 0 .2-.2.5-.4.6zM92.2-8.6l-1.6.6c-.2.1-.4 0-.4-.3 0-.2.2-.5.4-.6l1.6-.6c.2-.1.4 0 .4.3 0 .2-.2.5-.4.6zM101.1-19l-1.8-.7c-.2-.1-.4-.3-.4-.6 0-.2.2-.4.4-.3l1.8.7c.2.1.4.3.4.6s-.2.4-.4.3z"/><path class="st1" d="M110.2-27.8l-4.7 1.7c-.2.1-.4 0-.4-.3 0-.2.2-.5.4-.6l4.7-1.7c.2-.1.4 0 .4.3s-.1.5-.4.6zM110.2-25.6l-4.7 1.7c-.2.1-.4 0-.4-.3 0-.2.2-.5.4-.6l4.7-1.7c.2-.1.4 0 .4.3s-.1.5-.4.6zM110.2-23.4l-4.7 1.7c-.2.1-.4 0-.4-.3 0-.2.2-.5.4-.6l4.7-1.7c.2-.1.4 0 .4.3s-.1.5-.4.6zM110.2-21.2l-4.7 1.7c-.2.1-.4 0-.4-.3 0-.2.2-.5.4-.6l4.7-1.7c.2-.1.4 0 .4.3s-.1.6-.4.6zM110.2-16.9l-4.7 1.7c-.2.1-.4 0-.4-.3 0-.2.2-.5.4-.6l4.7-1.7c.2-.1.4 0 .4.3s-.1.5-.4.6zM110.2-14.7l-4.7 1.7c-.2.1-.4 0-.4-.3 0-.2.2-.5.4-.6l4.7-1.7c.2-.1.4 0 .4.3s-.2.6-.4.6zM110.2-12.4l-4.7 1.7c-.2.1-.4 0-.4-.3 0-.2.2-.5.4-.6l4.7-1.7c.2-.1.4 0 .4.3 0 .2-.2.5-.4.6zM110.2-10.2l-4.7 1.7c-.2.1-.4 0-.4-.3 0-.2.2-.5.4-.6l4.7-1.7c.2-.1.4 0 .4.3 0 .2-.2.5-.4.6zM110.2-8l-4.7 1.7c-.2.1-.4 0-.4-.3 0-.2.2-.5.4-.6l4.7-1.7c.2-.1.4 0 .4.3 0 .2-.2.5-.4.6zM107.4-18l-1.8.7c-.2.1-.4 0-.4-.3 0-.2.2-.5.4-.6l1.8-.7c.2-.1.4 0 .4.3s-.2.5-.4.6zM110.2-19l-1.8.7c-.2.1-.4 0-.4-.3 0-.2.2-.5.4-.6l1.8-.7c.2-.1.4 0 .4.3 0 .2-.1.5-.4.6zM16.1 23.4c-.2 0-.4 0-.6-.1l-4.4-1.9c-.7-.3-1.3-1.1-1.3-1.9v-6.5c0-.4.2-.8.5-1 .3-.2.8-.2 1.2 0l4.4 1.9c.7.3 1.3 1.1 1.3 1.9v6.5c0 .4-.2.8-.5 1-.2.1-.4.1-.6.1zm-5.2-10.5c-.1 0-.1.1-.1.2v6.5c0 .4.3.8.7 1l4.4 1.9c.1.1.2.1.3 0v-6.6c0-.4-.3-.8-.7-1l-4.4-1.9c-.1-.1-.2-.1-.2-.1z"/><path class="st0" d="M15.8 8.1l-4.8-2.1c-.2-.1-.4-.4-.4-.6 0-.2.2-.4.4-.2l4.9 2.1c.2.1.4.4.4.6 0 .2-.2.3-.5.2zM12.9 9.1l-1.9-.8c-.2-.1-.4-.4-.4-.6 0-.2.2-.4.4-.2l1.9.8c.2.1.4.4.4.6 0 .2-.2.3-.4.2zM15.8 12.7l-4.8-2.1c-.2-.1-.4-.4-.4-.6 0-.2.2-.4.4-.2l4.9 2.1c.2.1.4.4.4.6 0 .2-.2.3-.5.2zM15.8 10.4l-1.9-.8c-.2-.1-.4-.4-.4-.6 0-.2.2-.4.4-.2l1.9.8c.2.1.4.4.4.6.1.2-.1.3-.4.2zM21.9 0h-14.6c-.6 0-1.1.5-1.1 1.1v19.5c0 .6.5 1.3 1.1 1.6l13.4 5.5c.6.2 1.1-.1 1.1-.7v-5.3h.1c.6 0 1.1-.5 1.1-1.1v-19.5c0-.6-.5-1.1-1.1-1.1zm-.9 26.8c0 .2-.2.3-.4.2l-12.6-5.2-.8-.3c-.2-.1-.4-.3-.4-.5v-19.6c0-.1 0-.1.1-.2.1 0 .2-.1.3 0l13.4 5.5c.3.1.4.3.4.5v19.6zm1.3-6.1c0 .2-.2.4-.4.4h-.1v-13.6c0-.6-.5-1.3-1.1-1.6l-12.7-5.1h13.9c.2 0 .4.2.4.4v19.5z"/><path class="st2" d="M99.3-52.2v-6.1c0-.5.4-.8 1-.5l4.4 1.8c.6.2 1 .8 1 1.3v6.1c0 .5-.4.8-1 .5l-4.4-1.8c-.6-.2-1-.8-1-1.3z"/><path class="st0" d="M100.1-45.1l4.9 2c.2.1.4.4.4.6 0 .2-.2.3-.4.2l-4.9-2c-.2-.1-.4-.4-.4-.6-.1-.2.1-.3.4-.2zM103-46l1.9.8c.2.1.4.4.4.6 0 .2-.2.3-.4.2l-1.9-.8c-.2-.1-.4-.4-.4-.6 0-.2.2-.3.4-.2zM100.1-49.3l4.9 2c.2.1.4.4.4.6 0 .2-.2.3-.4.2l-4.9-2c-.2-.1-.4-.4-.4-.6-.1-.2.1-.3.4-.2zM100.1-47.2l1.9.8c.2.1.4.4.4.6 0 .2-.2.3-.4.2l-1.9-.8c-.2-.1-.4-.4-.4-.6-.1-.2.1-.3.4-.2zM111.9-63.7l.1-.3v-.6000000000000001c0-.3-.1-.5-.4-.7s-.5-.3-.8-.3h-14.5c-.3 0-.6.1-.8.3s-.3.4-.4.7v20.2c0 .6.5 1.2 1.1 1.5l13.4 5.2c.6.2 1.1-.1 1.1-.6v-4.9h.1c.6 0 1.1-.5 1.1-1.1v-18.3c0-.3-.1-.5-.3-.7.2-.2.2-.3.3-.4zm-16-.8c0-.2.2-.4.4-.4h14.5c.2 0 .4.2.4.4v.4c0 .2-.2.3-.4.4h-14.5c-.2 0-.4-.2-.4-.4v-.4zm14.1 25.8c0 .2-.2.3-.4.2l-13.4-5.2c-.1-.1-.3-.2-.3-.3v-18.400000000000002c0-.1 0-.1.1-.2s.2-.1.3-.1l13.4 5.2c.2.1.4.3.4.5v18.299999999999997zm1.2-5.7c0 .2-.2.4-.4.4h-.1v-12.7c0-.6-.5-1.2-1.1-1.5l-12.6-4.8h13.8c.2 0 .4.2.4.4v18.2zM112-62.7v-.7.7zM96.3 15l-7.8-2.1c-.2-.1-.5-.3-.5-.6 0-.2.2-.4.5-.3l7.8 2.1c.2.1.5.3.5.6-.1.3-.3.4-.5.3zM91.1 17.2l-2.6-.7c-.2-.1-.5-.3-.5-.6 0-.2.2-.4.5-.3l2.6.7c.2.1.5.3.5.6 0 .2-.2.4-.5.3zM96.3 18.6l-2.6-.7c-.2-.1-.5-.3-.5-.6 0-.2.2-.4.5-.3l2.6.7c.2.1.5.3.5.6-.1.2-.3.4-.5.3zM96.3 22.1l-7.8-2.1c-.2-.1-.5-.3-.5-.6 0-.2.2-.4.5-.3l7.8 2.1c.2.1.5.3.5.6-.1.3-.3.4-.5.3zM96.3 25.7l-7.8-2.1c-.2-.1-.5-.3-.5-.6 0-.2.2-.4.5-.3l7.8 2.1c.2.1.5.3.5.6-.1.2-.3.4-.5.3zM96.3 29.2l-7.8-2.1c-.2-.1-.5-.3-.5-.6 0-.2.2-.4.5-.3l7.8 2.1c.2.1.5.3.5.6-.1.3-.3.4-.5.3zM96.3 32.8l-7.8-2.1c-.2-.1-.5-.3-.5-.6 0-.2.2-.4.5-.3l7.8 2.1c.2.1.5.3.5.6-.1.2-.3.4-.5.3z"/><path class="st1" d="M98.6 14.2v2.1c0 .2-.2.4-.4.4h-.1c-.2 0-.4-.2-.4-.4v-2.1c0-.2.2-.4.4-.4h.1c.2 0 .4.2.4.4zM98.6 31.3v2.1c0 .2-.2.4-.4.4h-.1c-.2 0-.4-.2-.4-.4v-2.1c0-.2.2-.4.4-.4h.1c.2 0 .4.2.4.4z"/><path class="st0" d="M111.6 8.2c-.3-.2-.8-.3-1.2-.2l-11.4 3.3c-.4.1-.7.3-.9.6-.2-.3-.6-.5-.9-.6l-11.4-3.3c-.5-.1-.9-.1-1.2.2-.3.2-.5.6-.5 1v21.6c0 .8.6 1.5 1.4 1.8l11.4 3.3c.4.1.9.1 1.2-.2.2.1.5.2.7.2.1 0 .3 0 .5-.1l11.4-3.3c.8-.2 1.4-1 1.4-1.8v-21.5c0-.4-.2-.8-.5-1zm-.5 22.6c0 .3-.3.7-.7.8l-11.4 3.3h-.4s-.1-.1-.1-.2v-.1c0-.2-.2-.4-.4-.4h-.1c-.2 0-.4.2-.4.4v.1c0 .1 0 .1-.1.2s-.2.1-.4 0l-11.4-3.3c-.4-.1-.7-.5-.7-.8v-21.6c0-.1 0-.1.1-.2h.4l11.4 3.3c.4.1.7.5.7.8 0 .2.2.4.4.4h.1c.2 0 .4-.2.4-.4 0-.3.3-.7.7-.8l11.5-3.3h.4s.1.1.1.2v21.6zM98.1 17.2c-.2 0-.4.2-.4.4v12.2c0 .2.2.4.4.4s.4-.2.4-.4v-12.1c.1-.3-.1-.5-.4-.5z"/><path class="st1" d="M87.3 10.4v20.2c0 .2-.2.4-.4.4h-.1c-.2 0-.4-.2-.4-.4v-20.2c0-.2.2-.4.4-.4h.1c.2 0 .4.2.4.4z"/><path class="st0" d="M100.5 14.9l7.8-2.1c.2-.1.5-.3.5-.6 0-.2-.2-.4-.5-.3l-7.8 2.1c-.2.1-.5.3-.5.6 0 .2.2.3.5.3zM105.6 17l2.6-.7c.2-.1.5-.3.5-.6 0-.2-.2-.4-.5-.3l-2.6.7c-.2.1-.5.3-.5.6.1.3.3.4.5.3zM100.5 18.4l2.6-.7c.2-.1.5-.3.5-.6 0-.2-.2-.4-.5-.3l-2.6.7c-.2.1-.5.3-.5.6 0 .2.2.4.5.3zM100.5 22l7.8-2.1c.2-.1.5-.3.5-.6 0-.2-.2-.4-.5-.3l-7.8 2.1c-.2.1-.5.3-.5.6 0 .2.2.3.5.3zM100.5 25.5l7.8-2.1c.2-.1.5-.3.5-.6 0-.2-.2-.4-.5-.3l-7.8 2.1c-.2.1-.5.3-.5.6 0 .2.2.4.5.3zM100.5 29.1l7.8-2.1c.2-.1.5-.3.5-.6 0-.2-.2-.4-.5-.3l-7.8 2.1c-.2.1-.5.3-.5.6 0 .2.2.3.5.3zM100.5 32.6l7.8-2.1c.2-.1.5-.3.5-.6 0-.2-.2-.4-.5-.3l-7.8 2.1c-.2.1-.5.3-.5.6s.2.4.5.3z"/><path class="st1" d="M109.4 10.3v20.2c0 .2.2.4.4.4h.1c.2 0 .4-.2.4-.4v-20.2c0-.2-.2-.4-.4-.4h-.1c-.2 0-.4.1-.4.4zM113.7 59.5h-3c-.2 0-.4-.2-.4-.4v-.1c0-.2.2-.4.4-.4h3c.2 0 .4.2.4.4v.1c0 .2-.2.4-.4.4zM113.7 63.4h-3c-.2 0-.4-.2-.4-.4s.2-.4.4-.4h3c.2 0 .4.2.4.4 0 .3-.2.4-.4.4zM113.7 67.4h-3c-.2 0-.4-.2-.4-.4v-.1c0-.2.2-.4.4-.4h3c.2 0 .4.2.4.4v.1c0 .2-.2.4-.4.4zM113.7 71.4h-3c-.2 0-.4-.2-.4-.4v-.1c0-.2.2-.4.4-.4h3c.2 0 .4.2.4.4v.1c0 .2-.2.4-.4.4zM113.7 75.3h-3c-.2 0-.4-.2-.4-.4v-.1c0-.2.2-.4.4-.4h3c.2 0 .4.2.4.4v.1c0 .2-.2.4-.4.4z"/><path class="st0" d="M123 61.8l-7.2 2.2c-.2.1-.4-.1-.4-.3 0-.2.2-.5.4-.6l7.2-2.2c.2-.1.4.1.4.3 0 .2-.2.5-.4.6z"/><path class="st1" d="M115.8 76.4c-.3 0-.5-.1-.7-.2-.3-.2-.5-.6-.5-1v-7.8c0-.8.6-1.5 1.3-1.8l6.6-2c.4-.1.8-.1 1.1.2.3.2.5.6.5 1v7.8c0 .8-.6 1.5-1.3 1.8l-6.6 2c-.1-.1-.3 0-.4 0zm7.1-12h-.1l-6.6 2c-.3.1-.6.5-.6.8v7.8c0 .1 0 .2.1.2h.2l6.6-2c.3-.1.6-.5.6-.8v-7.8c0-.1 0-.2-.1-.2h-.1z"/><path class="st0" d="M123 58.9l-7.2 2.2c-.2.1-.4-.1-.4-.3 0-.2.2-.5.4-.6l7.2-2.2c.2-.1.4.1.4.3 0 .2-.2.5-.4.6zM123 55.9l-7.2 2.2c-.2.1-.4-.1-.4-.3 0-.2.2-.5.4-.6l7.2-2.2c.2-.1.4.1.4.3 0 .3-.2.6-.4.6zM108.4 57.9l-7.2-2.1c-.2-.1-.4-.3-.4-.6 0-.2.2-.4.4-.3l7.2 2.1c.2.1.4.3.4.6 0 .2-.2.4-.4.3zM103.6 60.1l-2.4-.7c-.2-.1-.4-.3-.4-.6 0-.2.2-.4.4-.3l2.4.7c.2.1.4.3.4.6 0 .2-.2.4-.4.3zM108.4 61.5l-2.4-.7c-.2-.1-.4-.3-.4-.6 0-.2.2-.4.4-.3l2.4.7c.2.1.4.3.4.6 0 .2-.2.3-.4.3zM108.4 65.1l-7.2-2.1c-.2-.1-.4-.3-.4-.6 0-.2.2-.4.4-.3l7.2 2.1c.2.1.4.3.4.6 0 .2-.2.3-.4.3zM108.4 68.6l-7.2-2.1c-.2-.1-.4-.3-.4-.6 0-.2.2-.4.4-.3l7.2 2.1c.2.1.4.3.4.6s-.2.4-.4.3zM108.4 72.2l-7.2-2.1c-.2-.1-.4-.3-.4-.6 0-.2.2-.4.4-.3l7.2 2.1c.2.1.4.3.4.6 0 .2-.2.4-.4.3zM108.4 75.8l-7.2-2.1c-.2-.1-.4-.3-.4-.6 0-.2.2-.4.4-.3l7.2 2.1c.2.1.4.3.4.6 0 .2-.2.4-.4.3zM125.6 51.4c-.3-.2-.7-.3-1.1-.2l-10.5 3.3c-.7.2-1.3 1-1.3 1.8v1.2c0 .2.2.4.4.4h.1c.2 0 .4-.2.4-.4v-1.2c0-.3.3-.7.6-.8l10.5-3.3h.30000000000000004c.1 0 .1.1.1.2v21.8c0 .3-.3.7-.6.8l-10.5 3.3h-.3c-.1 0-.1-.1-.1-.2v-1.7000000000000002c0-.2-.2-.4-.4-.4h-.2c-.2 0-.4.2-.4.4v1.7000000000000002c0 .4.2.8.5 1 .2.2.4.2.7.2.1 0 .3 0 .4-.1l10.5-3.3c.7-.2 1.3-1 1.3-1.8v-21.7c.1-.4-.1-.7-.4-1zM110.5 54.6l-10.5-3.3c-.4-.1-.8-.1-1.1.2-.3.2-.5.6-.5 1v21.8c0 .8.6 1.5 1.3 1.8l10.5 3.3.4.1c.3 0 .5-.1.7-.2.3-.2.5-.6.5-1v-1.7000000000000002c0-.2-.2-.4-.4-.4h-.1c-.2 0-.4.2-.4.4v1.6c0 .1 0 .2-.1.2s-.2.1-.3 0l-10.5-3.3c-.3-.1-.6-.5-.6-.8v-21.9c0-.1 0-.2.1-.2h.30000000000000004l10.5 3.3c.3.1.6.5.6.8v1.2000000000000002c0 .2.2.4.4.4h.1c.2 0 .4-.2.4-.4v-1.2c0-.7-.6-1.4-1.3-1.7zM111.6 60.2c0-.2-.2-.4-.4-.4s-.4.2-.4.4v1.5c0 .2.2.4.4.4s.4-.2.4-.4v-1.5zM111.6 64.3c0-.2-.2-.4-.4-.4s-.4.2-.4.4v1.5c0 .2.2.4.4.4s.4-.2.4-.4v-1.5zM111.6 68.2c0-.2-.2-.4-.4-.4s-.4.2-.4.4v1.5c0 .2.2.4.4.4s.4-.2.4-.4v-1.5zM111.2 71.8c-.2 0-.4.2-.4.4v1.5c0 .2.2.4.4.4s.4-.2.4-.4v-1.5c0-.2-.1-.4-.4-.4zM113.2 62.1c.2 0 .4-.2.4-.4v-1.5c0-.2-.2-.4-.4-.4s-.4.2-.4.4v1.5c-.1.2.1.4.4.4zM112.7 65.7c0 .2.2.4.4.4s.4-.2.4-.4v-1.5c0-.2-.2-.4-.4-.4s-.4.2-.4.4v1.5zM112.7 69.7c0 .2.2.4.4.4s.4-.2.4-.4v-1.5c0-.2-.2-.4-.4-.4s-.4.2-.4.4v1.5zM112.7 73.7c0 .2.2.4.4.4s.4-.2.4-.4v-1.5c0-.2-.2-.4-.4-.4s-.4.2-.4.4v1.5z"/><path class="st3" d="M176.7-27.4v23.4c0 .6-.4 1-1 1h-16.9c-.6 0-1-.4-1-1v-23.4c0-.6.4-1 1-1h16.9c.6 0 1 .4 1 1z"/><path class="st1" d="M160.4-30.2v2.1c0 .2-.2.4-.4.4s-.4-.2-.4-.4v-2.1c0-.2.2-.4.4-.4.2-.1.4.1.4.4zM164.1-30.2v2.1c0 .2-.2.4-.4.4s-.4-.2-.4-.4v-2.1c0-.2.2-.4.4-.4.2-.1.4.1.4.4zM167.8-30.2v2.1c0 .2-.2.4-.4.4s-.4-.2-.4-.4v-2.1c0-.2.2-.4.4-.4.2-.1.4.1.4.4zM171.5-30.2v2.1c0 .2-.2.4-.4.4s-.4-.2-.4-.4v-2.1c0-.2.2-.4.4-.4.2-.1.4.1.4.4zM175.2-30.2v2.1c0 .2-.2.4-.4.4s-.4-.2-.4-.4v-2.1c0-.2.2-.4.4-.4.2-.1.4.1.4.4z"/><path class="st0" d="M174.4-24h-14.3c-.2 0-.4-.2-.4-.4s.2-.4.4-.4h14.3c.2 0 .4.2.4.4s-.2.4-.4.4zM174.4-19.4h-14.3c-.2 0-.4-.2-.4-.4s.2-.4.4-.4h14.3c.2 0 .4.2.4.4s-.2.4-.4.4zM174.4-14.8h-14.3c-.2 0-.4-.2-.4-.4s.2-.4.4-.4h14.3c.2 0 .4.2.4.4s-.2.4-.4.4zM174.4-10.2h-14.3c-.2 0-.4-.2-.4-.4s.2-.4.4-.4h14.3c.2 0 .4.2.4.4s-.2.4-.4.4zM174.4-5.6h-14.3c-.2 0-.4-.2-.4-.4s.2-.4.4-.4h14.3c.2 0 .4.2.4.4s-.2.4-.4.4zM173.9 15.4h-4.1c-.2 0-.4-.2-.4-.4s.2-.4.4-.4h4.1c.2 0 .4.2.4.4.1.2-.1.4-.4.4zM167.5 15.4h-4.1c-.2 0-.4-.2-.4-.4s.2-.4.4-.4h4.1c.2 0 .4.2.4.4.1.2-.1.4-.4.4zM173.9 18.1h-10.5c-.2 0-.4-.2-.4-.4s.2-.4.4-.4h10.5c.2 0 .4.2.4.4.1.2-.1.4-.4.4z"/><path class="st1" d="M172.9 27.5h-8.5c-.8 0-1.5-.7-1.5-1.5v-4.8c0-.8.7-1.5 1.5-1.5h8.5c.8 0 1.5.7 1.5 1.5v4.8c0 .8-.7 1.5-1.5 1.5zm-8.5-6.7c-.3 0-.5.2-.5.5v4.7c0 .3.2.5.5.5h8.5c.3 0 .5-.2.5-.5v-4.8c0-.3-.2-.5-.5-.5h-8.5zM169.2 1.5v9c0 .2-.2.4-.4.4s-.4-.2-.4-.4v-9c0-.2.2-.4.4-.4.2-.1.4.1.4.4zM170.3 9.5c-.2-.2-.3-.3-.4-.3h-.1c-.2 0-.4.2-.4.4v.1c0 .2.1.3.3.4.1.2.2.3.2.6 0 .6-.4 1-1 1s-1-.4-1-1c0-.2.1-.4.2-.6.2-.1.3-.2.3-.4v-.1c0-.2-.2-.4-.4-.4h-.1c-.2 0-.3.1-.4.2h-.1c-.3.3-.5.8-.5 1.3 0 1.1.9 2 2 2s2-.9 2-2c-.2-.4-.3-.9-.6-1.2z"/><path class="st0" d="M170.2 9.4M170.1 9.3"/><path class="st0" d="M174.7 6.6h-4.8999999999999995c-.2 0-.4.2-.4.4v.1c0 .2.2.4.4.4h5c.3 0 .5.2.5.5v19.7c0 .3-.2.5-.5.5h-12c-.3 0-.5-.2-.5-.5v-19.6c0-.3.2-.5.5-.5h5c.2 0 .4-.2.4-.4v-.2c0-.2-.2-.4-.4-.4h-4.8999999999999995c-.8 0-1.5.7-1.5 1.5v19.7c0 .8.7 1.5 1.5 1.5h12c.8 0 1.5-.7 1.5-1.5v-19.7c-.2-.8-.9-1.5-1.7-1.5zM141 57.8h-4.1c-.2 0-.4.2-.4.4s.2.4.4.4h4.1c.2 0 .4-.2.4-.4s-.2-.4-.4-.4zM134.6 57.8h-4.1c-.2 0-.4.2-.4.4s.2.4.4.4h4.1c.2 0 .4-.2.4-.4.1-.2-.1-.4-.4-.4zM141 55.1h-10.5c-.2 0-.4.2-.4.4s.2.4.4.4h10.5c.2 0 .4-.2.4-.4s-.2-.4-.4-.4z"/><path class="st1" d="M140 53.4h-8.5c-.8 0-1.5-.7-1.5-1.5v-4.8c0-.8.7-1.5 1.5-1.5h8.5c.8 0 1.5.7 1.5 1.5v4.8c0 .9-.7 1.5-1.5 1.5zm-8.6-6.7c-.3 0-.5.2-.5.5v4.8c0 .3.2.5.5.5h8.5c.3 0 .5-.2.5-.5v-4.8c0-.3-.2-.5-.5-.5h-8.5z"/><path class="st0" d="M137.3 41.1M137.2 41"/><path class="st0" d="M143.3 41.5c0-.2-.1-3.9-1.4-5.7-1.3-1.7-3.3-2.6-5.9-2.6-.2 0-4.1-.1-6.2 1.9-.8.8-1.2 1.8-1.2 3.1.1.7.6 2 2 2 .7 0 1.1-.3 1.4-.5.5-.5.5-1.3.5-1.4 0 0 0-.5.4-1 .5-.6 1.6-.9 3-.9 1.6 0 2.7.6 3.3 1.9.4.8.6 2.8 0 3.6-.4.6-1.2.9-2.2.9h-7c-.8 0-1.5.7-1.5 1.5v15.2c0 .8.7 1.5 1.5 1.5h12c.8 0 1.5-.7 1.5-1.5v-3.2l-.2-14.8zm-1 14.8v3.2c0 .3-.2.5-.5.5h-12c-.3 0-.5-.2-.5-.5v-15.299999999999999c0-.3.2-.5.5-.5h7.3c1.3 0 2.3-.5 2.9-1.3.8-1.2.6-3.6.1-4.7s-1.7-2.4-4.2-2.4c-1.7 0-3 .4-3.8 1.2-.7.8-.7 1.6-.7 1.7 0 0 0 .4-.2.7-.1.1-.3.2-.6.2-.9 0-1-.9-1-1 0-.9.3-1.7.9-2.3 1.8-1.7 5.5-1.6 5.5-1.6 2.3 0 4 .8 5.1 2.2 1.2 1.6 1.2 5.1 1.2 5.1v14.8zM69.5 11.2h-11.1c-.2 0-.4-.2-.4-.4s.2-.4.4-.4h11.1c.2 0 .4.2.4.4.1.2-.1.4-.4.4zM63.3 15h-4.9c-.2 0-.4-.2-.4-.4s.2-.4.4-.4h4.9c.2 0 .4.2.4.4s-.2.4-.4.4zM69.6 15h-4.9c-.2 0-.4-.2-.4-.4s.2-.4.4-.4h4.9c.2 0 .4.2.4.4s-.2.4-.4.4zM67.6 18.7h-18.9c-.2 0-.4.2-.4.4s.2.4.4.4h18.9c.2 0 .4-.2.4-.4s-.2-.4-.4-.4z"/><path class="st2" d="M55.2 15.7h-7.9c-.6 0-1-.4-1-1v-4.4c0-.6.4-1 1-1h7.9c.6 0 1 .4 1 1v4.4c0 .5-.4 1-1 1z"/><path class="st0" d="M70.6 22.3h-24.8c-.8 0-1.5-.7-1.5-1.5v-12.8c0-.8.7-1.5 1.5-1.5h24.8c.8 0 1.5.7 1.5 1.5v12.8c0 .8-.7 1.5-1.5 1.5zm-24.8-14.8c-.3 0-.5.2-.5.5v12.8c0 .3.2.5.5.5h24.8c.3 0 .5-.2.5-.5v-12.8c0-.3-.2-.5-.5-.5h-24.8z"/><path class="st1" d="M52.2-2c-.2 0-.4-.2-.4-.4s.2-.4.4-.4.4.2.4.4c.1.2-.1.4-.4.4z"/><path class="st0" d="M50.3-4.3h-15.500000000000002c-.2 0-.4.2-.4.4s.2.4.4.4h15.500000000000002c.2 0 .4-.2.4-.4s-.2-.4-.4-.4z"/><path class="st1" d="M52.2-3.7c-.2 0-.4-.2-.4-.4s.2-.4.4-.4.4.2.4.4c.1.3-.1.4-.4.4zM52.2-5.3c-.2 0-.4-.2-.4-.4s.2-.4.4-.4.4.2.4.4c.1.2-.1.4-.4.4zM52.2-7c-.2 0-.4-.2-.4-.4s.2-.4.4-.4.4.2.4.4c.1.3-.1.4-.4.4zM52.2-8.6c-.2 0-.4-.2-.4-.4s.2-.4.4-.4.4.2.4.4c.1.2-.1.4-.4.4zM52.2-10.3c-.2 0-.4-.2-.4-.4s.2-.4.4-.4.4.2.4.4c.1.3-.1.4-.4.4zM52.2-11.9c-.2 0-.4-.2-.4-.4s.2-.4.4-.4.4.2.4.4c.1.2-.1.4-.4.4zM52.2-13.5c-.2 0-.4-.2-.4-.4s.2-.4.4-.4.4.2.4.4c.1.2-.1.4-.4.4zM50.2-7.7h-4.4c-.2 0-.4-.2-.4-.4s.2-.4.4-.4h4.4c.2 0 .4.2.4.4s-.1.4-.4.4zM50.2-12.2h-4.4c-.2 0-.4-.2-.4-.4s.2-.4.4-.4h4.4c.2 0 .4.2.4.4s-.1.4-.4.4z"/><path class="st0" d="M54.8-6.5v4.4c0 .2-.2.4-.4.4s-.4-.2-.4-.4v-4.4c0-.2.2-.4.4-.4.2-.1.4.1.4.4zM54.8-14.2v4.4c0 .2-.2.4-.4.4s-.4-.2-.4-.4v-4.4c0-.2.2-.4.4-.4.2-.1.4.1.4.4z"/><path class="st1" d="M57.6-14.1v12.1c0 .2-.2.4-.4.4s-.4-.2-.4-.4v-12.1c0-.2.2-.4.4-.4.2-.1.4.1.4.4zM52.2-15.2c-.2 0-.4-.2-.4-.4s.2-.4.4-.4.4.2.4.4c.1.2-.1.4-.4.4zM52.2-.4c-.2 0-.4-.2-.4-.4s.2-.4.4-.4.4.2.4.4c.1.2-.1.4-.4.4z"/><path class="st0" d="M59.1-16.2h-5.8999999999999995c-.2 0-.4.2-.4.4v.1c0 .2.2.4.4.4h5.8999999999999995c.3 0 .5.2.5.5v12.9c0 .3-.2.5-.5.5h-5.8999999999999995c-.2 0-.4.2-.4.4v.1c0 .2.2.4.4.4h5.8999999999999995c.8 0 1.4-.7 1.4-1.5v-12.7c0-.8-.6-1.5-1.4-1.5z"/><path class="st2" d="M43.2-7.2h-7c-.6 0-1-.4-1-1v-4.4c0-.6.4-1 1-1h7c.6 0 1 .4 1 1v4.4c0 .6-.5 1-1 1z"/><path class="st0" d="M33.5-8.5v-6.2c0-.3.2-.5.5-.5h17.3c.2 0 .4-.2.4-.4v-.1c0-.2-.2-.4-.4-.4h-17.299999999999997c-.8 0-1.5.7-1.5 1.5v12.7c0 .8.7 1.5 1.5 1.5h17.3c.2 0 .4-.2.4-.4v-.1c0-.2-.2-.4-.4-.4h-17.299999999999997c-.3 0-.5-.2-.5-.5v-6.7zM75.2 25.8h-19c-.8 0-1.5.7-1.5 1.5v25.1c0 .8.7 1.5 1.5 1.5h19c.8 0 1.5-.7 1.5-1.5v-25.1c0-.8-.7-1.5-1.5-1.5zm.5 23.4v3.2c0 .3-.2.5-.5.5h-19c-.3 0-.5-.2-.5-.5v-25.1c0-.3.2-.5.5-.5h19c.3 0 .5.2.5.5v21.9z"/><path class="st1" d="M128.3 6.9h-5.6c-.8 0-1.5-.7-1.5-1.5v-2.7c0-.8.7-1.5 1.5-1.5h5.6c.8 0 1.5.7 1.5 1.5v2.7c0 .8-.7 1.5-1.5 1.5zm-5.6-4.7c-.3 0-.5.2-.5.5v2.7c0 .3.2.5.5.5h5.6c.3 0 .5-.2.5-.5v-2.7c0-.3-.2-.5-.5-.5h-5.6z"/><path class="st0" d="M138.9 4.5h-7.5c-.2 0-.4-.2-.4-.4s.2-.4.4-.4h7.5c.2 0 .4.2.4.4s-.2.4-.4.4z"/><path class="st1" d="M137.8 12.8h-5.6c-.8 0-1.5-.7-1.5-1.5v-2.7c0-.8.7-1.5 1.5-1.5h5.6c.8 0 1.5.7 1.5 1.5v2.7c0 .8-.6 1.5-1.5 1.5zm-5.5-4.7c-.3 0-.5.2-.5.5v2.7c0 .3.2.5.5.5h5.6c.3 0 .5-.2.5-.5v-2.7c0-.3-.2-.5-.5-.5h-5.6z"/><path class="st0" d="M121.7 10.4h7.5c.2 0 .4-.2.4-.4s-.2-.4-.4-.4h-7.5c-.2 0-.4.2-.4.4-.1.2.1.4.4.4z"/><path class="st1" d="M128.3 18.6h-5.6c-.8 0-1.5-.7-1.5-1.5v-2.7c0-.8.7-1.5 1.5-1.5h5.6c.8 0 1.5.7 1.5 1.5v2.7c0 .8-.7 1.5-1.5 1.5zm-5.6-4.7c-.3 0-.5.2-.5.5v2.7c0 .3.2.5.5.5h5.6c.3 0 .5-.2.5-.5v-2.7c0-.3-.2-.5-.5-.5h-5.6z"/><path class="st0" d="M138.9 16.2h-7.5c-.2 0-.4-.2-.4-.4s.2-.4.4-.4h7.5c.2 0 .4.2.4.4s-.2.4-.4.4z"/><path class="st1" d="M138.3 21.4h-16.1c-.2 0-.4-.2-.4-.4s.2-.4.4-.4h16.1c.2 0 .4.2.4.4.1.2-.1.4-.4.4zM138.3 24.5h-16.1c-.2 0-.4-.2-.4-.4s.2-.4.4-.4h16.1c.2 0 .4.2.4.4.1.2-.1.4-.4.4z"/><path class="st0" d="M140-1h-19c-.8 0-1.5.7-1.5 1.5v25c0 .8.7 1.5 1.5 1.5h19c.8 0 1.5-.7 1.5-1.5v-25c0-.8-.6-1.5-1.5-1.5zm.5 24.8v1.8c0 .3-.2.5-.5.5h-19c-.3 0-.5-.2-.5-.5v-25.1c0-.3.2-.5.5-.5h19c.3 0 .5.2.5.5v23.299999999999997zM83.3 63.9h-4.1c-.2 0-.4-.2-.4-.4s.2-.4.4-.4h4.1c.2 0 .4.2.4.4s-.2.4-.4.4zM83.3 66.5h-4.1c-.2 0-.4-.2-.4-.4s.2-.4.4-.4h4.1c.2 0 .4.2.4.4s-.2.4-.4.4zM83.3 69.2h-4.1c-.2 0-.4-.2-.4-.4s.2-.4.4-.4h4.1c.2 0 .4.2.4.4s-.2.4-.4.4zM89.7 71.9h-10.5c-.2 0-.4-.2-.4-.4s.2-.4.4-.4h10.5c.2 0 .4.2.4.4s-.2.4-.4.4z"/><path class="st1" d="M88.6 86.2h-8.5c-.8 0-1.5-.7-1.5-1.5v-4.7c0-.8.7-1.5 1.5-1.5h8.5c.8 0 1.5.7 1.5 1.5v4.8c0 .8-.6 1.4-1.5 1.4zm-8.5-6.7c-.3 0-.5.2-.5.5v4.8c0 .3.2.5.5.5h8.5c.3 0 .5-.2.5-.5v-4.8c0-.3-.2-.5-.5-.5h-8.5zM90.5 60.5h-12c-.8 0-1.5.7-1.5 1.5v25c0 .8.7 1.5 1.5 1.5h12c.8 0 1.5-.7 1.5-1.5v-25c0-.8-.7-1.5-1.5-1.5zm.5 21.5v5c0 .3-.2.5-.5.5h-12c-.3 0-.5-.2-.5-.5v-25c0-.3.2-.5.5-.5h12c.3 0 .5.2.5.5v20z"/><path class="st0" d="M92 70.3v-3l-6.9-6.9h-6.6c-.8 0-1.5.7-1.5 1.5v25.1c0 .8.7 1.5 1.5 1.5h12c.8 0 1.5-.7 1.5-1.5v-16.7zm-6.6-8.1l4.9 4.9h-4.4c-.3 0-.5-.2-.5-.5v-4.4zm5.6 21.6v3.2c0 .3-.2.5-.5.5h-12c-.3 0-.5-.2-.5-.5v-25c0-.3.2-.5.5-.5h5.9v5.1c0 .8.7 1.5 1.5 1.5h5.1v15.7zM89.7 74.5h-10.5c-.2 0-.4-.2-.4-.4s.2-.4.4-.4h10.5c.2 0 .4.2.4.4s-.2.4-.4.4zM89.7 77.2h-10.5c-.2 0-.4-.2-.4-.4s.2-.4.4-.4h10.5c.2 0 .4.2.4.4s-.2.4-.4.4zM191.6-25.2h-7.6c-.2 0-.4-.2-.4-.4s.2-.4.4-.4h7.5c.2 0 .4.2.4.4.1.2-.1.4-.3.4zM187.2-22.1h-3.1c-.2 0-.4-.2-.4-.4s.2-.4.4-.4h3.1c.2 0 .4.2.4.4.1.2-.1.4-.4.4zM191.5-22.1h-2.5c-.2 0-.4-.2-.4-.4s.2-.4.4-.4h2.5c.2 0 .4.2.4.4.1.2-.1.4-.4.4z"/><path class="st1" d="M191.9-19h-8.1c-.2 0-.4-.2-.4-.4s.2-.4.4-.4h8.1c.2 0 .4.2.4.4s-.2.4-.4.4z"/><path class="st0" d="M186.1-16.3h-2.1c-.2 0-.4-.2-.4-.4s.2-.4.4-.4h2.1c.2 0 .4.2.4.4s-.2.4-.4.4zM196.6-16.3h-2.1c-.2 0-.4-.2-.4-.4s.2-.4.4-.4h2.1c.2 0 .4.2.4.4s-.2.4-.4.4zM189.6-16.3h-2.1c-.2 0-.4-.2-.4-.4s.2-.4.4-.4h2.1c.2 0 .4.2.4.4s-.2.4-.4.4zM193.1-16.3h-2.1c-.2 0-.4-.2-.4-.4s.2-.4.4-.4h2.1c.2 0 .4.2.4.4s-.2.4-.4.4zM200.1-16.3h-2.1c-.2 0-.4-.2-.4-.4s.2-.4.4-.4h2.1c.2 0 .4.2.4.4s-.2.4-.4.4z"/><path class="st1" d="M200.1-13.1h-16.1c-.2 0-.4-.2-.4-.4s.2-.4.4-.4h16.1c.2 0 .4.2.4.4s-.2.4-.4.4zM199.3-19h-4.4c-.8 0-1.5-.6-1.5-1.4v-7.4c0-.8.7-1.4 1.5-1.4h4.4c.8 0 1.5.6 1.5 1.4v7.4c0 .8-.7 1.4-1.5 1.4zm-4.4-9.3c-.3 0-.5.2-.5.5v7.4c0 .3.2.5.5.5h4.4c.3 0 .5-.2.5-.5v-7.4c0-.3-.2-.5-.5-.5h-4.4z"/><path class="st0" d="M200.1-9.6h-7.5c-.2 0-.4-.2-.4-.4s.2-.4.4-.4h7.5c.2 0 .4.2.4.4s-.2.4-.4.4zM200.1-6.6h-7.5c-.2 0-.4-.2-.4-.4s.2-.4.4-.4h7.5c.2 0 .4.2.4.4s-.2.4-.4.4z"/><path class="st1" d="M186.9-5.3h-.2c-1.8 0-3.2-1.4-3.2-3.2s1.4-3.2 3.2-3.2h.2c1.8 0 3.2 1.4 3.2 3.2s-1.4 3.2-3.2 3.2zm-.2-5.4c-1.2 0-2.2 1-2.2 2.2 0 1.2 1 2.2 2.2 2.2h.2c1.2 0 2.2-1 2.2-2.2 0-1.2-1-2.2-2.2-2.2h-.2z"/><path class="st0" d="M191.6-28.4h-7.6c-.2 0-.4-.2-.4-.4s.2-.4.4-.4h7.5c.2 0 .4.2.4.4.1.2-.1.4-.3.4zM201.5-31.3h-19c-.8 0-1.5.7-1.5 1.5v25.000000000000004c0 .8.7 1.5 1.5 1.5h19c.8 0 1.5-.7 1.5-1.5v-25c0-.8-.7-1.5-1.5-1.5zm.5 23.4v3.1c0 .3-.2.5-.5.5h-19c-.3 0-.5-.2-.5-.5v-25c0-.3.2-.5.5-.5h19c.3 0 .5.2.5.5v21.900000000000002zM57.1 70c-.1-.3-.4-.4-.6-.3l-8.1 3.5h-.1l-.7.3c-.8.3-2 .4-2.6.1l-1-.5h-.1l-8-3.4c-.2-.1-.5 0-.6.2v.1c-.1.2 0 .5.2.6l8 3.4 1.1.5c.4.2.9.2 1.4.2.7 0 1.4-.1 2-.4l.7-.3 8.2-3.5c.2 0 .3-.3.2-.5z"/><path class="st1" d="M41.8 70c-.8.4-1.5.7-1.8.8-.8.4-1.6-.1-1.6-.2l-.3-.1c-.3 0-.5.2-.5.5 0 .2.1.3.2.4h.1c.2.1.8.4 1.5.4.3 0 .7-.1 1-.2.4-.2 1.4-.6 2.5-1.2l-1.1-.4z"/><path class="st0" d="M57.1 67.4c-.1-.3-.4-.4-.6-.3l-8.1 3.5h-.1l-.7.3c-.8.3-2 .4-2.6.1l-1-.5h-.1l-8-3.4c-.2-.1-.5 0-.6.2v.1c-.1.2 0 .5.2.6l8 3.4 1.1.5c.4.2.9.2 1.4.2.7 0 1.4-.1 2-.4l.7-.3 8.2-3.5c.2-.1.3-.3.2-.5z"/><path class="st1" d="M41.7 67.4c-.8.4-1.4.7-1.7.8-.8.4-1.6-.1-1.6-.2l-.3-.1c-.3 0-.5.2-.5.5 0 .2.1.3.2.4h.1c.2.1.8.4 1.5.4.3 0 .7-.1 1-.2.4-.2 1.3-.6 2.4-1.1l-1.1-.5z"/><path class="st0" d="M57.1 64.7c-.1-.3-.4-.4-.6-.3l-8.1 3.5h-.1l-.7.3c-.8.3-2 .4-2.6.1l-1-.5h-.1l-8-3.4c-.2-.1-.5 0-.6.2v.1c-.1.2 0 .5.2.6l8 3.4 1.1.5c.4.2.9.2 1.4.2.7 0 1.4-.1 2-.4l.7-.3 8.2-3.5c.2 0 .3-.3.2-.5z"/><path class="st1" d="M41.6 64.8c-.8.4-1.4.6-1.6.8-.8.4-1.6-.1-1.6-.2l-.3-.1c-.3 0-.5.2-.5.5 0 .2.1.3.2.4h.1c.2.1.8.4 1.5.4.3 0 .7-.1 1-.2.3-.2 1.3-.6 2.4-1.1l-1.2-.5z"/><path class="st0" d="M57.1 62.1c-.1-.3-.4-.4-.6-.3l-8.1 3.5h-.1l-.7.3c-.8.3-2 .4-2.6.1l-1-.5h-.1l-8-3.4c-.2-.1-.5 0-.6.2v.1c-.1.2 0 .5.2.6l8 3.4 1.1.5c.4.2.9.2 1.4.2.7 0 1.4-.1 2-.4l.7-.3 8.2-3.5c.2-.1.3-.3.2-.5z"/><path class="st1" d="M41.7 62.1c-.8.4-1.4.7-1.7.8-.8.4-1.6-.1-1.6-.2l-.3-.1c-.3 0-.5.2-.5.5 0 .2.1.3.2.4h.1c.2.1.8.4 1.5.4.3 0 .7-.1 1-.2.4-.2 1.3-.6 2.4-1.1l-1.1-.5z"/><path class="st0" d="M57.1 59.4c-.1-.3-.4-.4-.6-.3l-8.1 3.5h-.1l-.7.3c-.8.3-2 .4-2.6.1l-1-.5h-.1l-8-3.4c-.2-.1-.5 0-.6.2v.1c-.1.2 0 .5.2.6l8 3.4 1.1.5c.4.2.9.2 1.4.2.7 0 1.4-.1 2-.4l.7-.3 8.2-3.5c.2 0 .3-.3.2-.5z"/><path class="st1" d="M41.4 59.6c-.7.3-1.2.6-1.4.7-.8.4-1.6-.1-1.6-.2l-.3-.1c-.3 0-.5.2-.5.5 0 .2.1.3.2.4h.1c.2.1.8.4 1.5.4.3 0 .7-.1 1-.2.3-.1 1.2-.5 2.2-1l-1.2-.5z"/><path class="st4" d="M46.1 61.7c-.5 0-1-.1-1.4-.2l-8.6-3.7c-.5-.2-.7-.6-.7-.8 0-.3 0-.9 1.1-1.4l7.4-3.1c1.1-.4 2.6-.5 3.4-.1l8.6 3.7c.7.3.8.7.8 1 0 .3-.2.8-1.1 1.2l-7.4 3.1c-.7.2-1.5.3-2.1.3zm-9.7-4.9s.1 0 .1.1l8.6 3.7c.6.3 1.8.2 2.6-.1l7.4-3.1c.3-.1.4-.2.5-.3 0 0-.1 0-.1-.1l-8.6-3.7c-.6-.3-1.8-.2-2.6.1l-7.4 3.1c-.3.2-.5.3-.5.3z"/><path class="st1" d="M48.9 53.1l-.3-.1c-.3 0-.5.2-.5.5 0 .2.2.4.4.5 0 0 .1 0 .1.1 0 0 0 .1-.1.1s-7.3 3.3-8.5 3.8c-.8.4-1.7-.2-1.7-.2l-.3-.1c-.3 0-.5.2-.5.5 0 .2.1.3.2.4h.1c.2.1.8.4 1.5.4.3 0 .7 0 1.1-.2 1.1-.5 8.2-3.6 8.4-3.7.2-.1.9-.3.9-.9 0-.5-.3-.8-.7-.9.1-.2 0-.2-.1-.2z"/></svg>